<?xml version="1.0" standalone="no"?>
<svg xmlns:xlink="http://www.w3.org/1999/xlink" id="wave" style="transform:rotate(0deg); transition: 0.3s" viewBox="0 0 1440 420" version="1.1" xmlns="http://www.w3.org/2000/svg"><defs><linearGradient id="sw-gradient-0" x1="0" x2="0" y1="1" y2="0"><stop stop-color="rgba(57.777, 255, 39.673, 1)" offset="0%"/><stop stop-color="rgba(86.504, 195.638, 223.481, 1)" offset="100%"/></linearGradient></defs><path style="transform:translate(0, 0px); opacity:1" fill="url(#sw-gradient-0)" d="M0,0L21.8,63C43.6,126,87,252,131,280C174.5,308,218,238,262,182C305.5,126,349,84,393,98C436.4,112,480,182,524,196C567.3,210,611,168,655,189C698.2,210,742,294,785,329C829.1,364,873,350,916,322C960,294,1004,252,1047,252C1090.9,252,1135,294,1178,294C1221.8,294,1265,252,1309,210C1352.7,168,1396,126,1440,91C1483.6,56,1527,28,1571,28C1614.5,28,1658,56,1702,84C1745.5,112,1789,140,1833,147C1876.4,154,1920,140,1964,119C2007.3,98,2051,70,2095,84C2138.2,98,2182,154,2225,175C2269.1,196,2313,182,2356,147C2400,112,2444,56,2487,77C2530.9,98,2575,196,2618,217C2661.8,238,2705,182,2749,175C2792.7,168,2836,210,2880,252C2923.6,294,2967,336,3011,343C3054.5,350,3098,322,3120,308L3141.8,294L3141.8,420L3120,420C3098.2,420,3055,420,3011,420C2967.3,420,2924,420,2880,420C2836.4,420,2793,420,2749,420C2705.5,420,2662,420,2618,420C2574.5,420,2531,420,2487,420C2443.6,420,2400,420,2356,420C2312.7,420,2269,420,2225,420C2181.8,420,2138,420,2095,420C2050.9,420,2007,420,1964,420C1920,420,1876,420,1833,420C1789.1,420,1745,420,1702,420C1658.2,420,1615,420,1571,420C1527.3,420,1484,420,1440,420C1396.4,420,1353,420,1309,420C1265.5,420,1222,420,1178,420C1134.5,420,1091,420,1047,420C1003.6,420,960,420,916,420C872.7,420,829,420,785,420C741.8,420,698,420,655,420C610.9,420,567,420,524,420C480,420,436,420,393,420C349.1,420,305,420,262,420C218.2,420,175,420,131,420C87.3,420,44,420,22,420L0,420Z"/><defs><linearGradient id="sw-gradient-1" x1="0" x2="0" y1="1" y2="0"><stop stop-color="rgba(47.392, 109.641, 54.811, 1)" offset="0%"/><stop stop-color="rgba(12.317, 222.114, 255, 1)" offset="100%"/></linearGradient></defs><path style="transform:translate(0, 50px); opacity:0.9" fill="url(#sw-gradient-1)" d="M0,210L21.8,196C43.6,182,87,154,131,168C174.5,182,218,238,262,273C305.5,308,349,322,393,315C436.4,308,480,280,524,231C567.3,182,611,112,655,133C698.2,154,742,266,785,266C829.1,266,873,154,916,126C960,98,1004,154,1047,168C1090.9,182,1135,154,1178,140C1221.8,126,1265,126,1309,140C1352.7,154,1396,182,1440,210C1483.6,238,1527,266,1571,294C1614.5,322,1658,350,1702,343C1745.5,336,1789,294,1833,287C1876.4,280,1920,308,1964,315C2007.3,322,2051,308,2095,294C2138.2,280,2182,266,2225,273C2269.1,280,2313,308,2356,280C2400,252,2444,168,2487,140C2530.9,112,2575,140,2618,175C2661.8,210,2705,252,2749,252C2792.7,252,2836,210,2880,203C2923.6,196,2967,224,3011,259C3054.5,294,3098,336,3120,357L3141.8,378L3141.8,420L3120,420C3098.2,420,3055,420,3011,420C2967.3,420,2924,420,2880,420C2836.4,420,2793,420,2749,420C2705.5,420,2662,420,2618,420C2574.5,420,2531,420,2487,420C2443.6,420,2400,420,2356,420C2312.7,420,2269,420,2225,420C2181.8,420,2138,420,2095,420C2050.9,420,2007,420,1964,420C1920,420,1876,420,1833,420C1789.1,420,1745,420,1702,420C1658.2,420,1615,420,1571,420C1527.3,420,1484,420,1440,420C1396.4,420,1353,420,1309,420C1265.5,420,1222,420,1178,420C1134.5,420,1091,420,1047,420C1003.6,420,960,420,916,420C872.7,420,829,420,785,420C741.8,420,698,420,655,420C610.9,420,567,420,524,420C480,420,436,420,393,420C349.1,420,305,420,262,420C218.2,420,175,420,131,420C87.3,420,44,420,22,420L0,420Z"/></svg>