<svg id="visual" viewBox="0 0 1600 900" width="1600" height="900" xmlns="http://www.w3.org/2000/svg" xmlns:xlink="http://www.w3.org/1999/xlink" version="1.1"><rect x="0" y="0" width="1600" height="900" fill="#aaf391"></rect><path d="M309 0L323.3 21.5C337.7 43 366.3 86 404.8 128.8C443.3 171.7 491.7 214.3 476 257.2C460.3 300 380.7 343 361.7 385.8C342.7 428.7 384.3 471.3 407.8 514.2C431.3 557 436.7 600 419.5 642.8C402.3 685.7 362.7 728.3 350.5 771.2C338.3 814 353.7 857 361.3 878.5L369 900L0 900L0 878.5C0 857 0 814 0 771.2C0 728.3 0 685.7 0 642.8C0 600 0 557 0 514.2C0 471.3 0 428.7 0 385.8C0 343 0 300 0 257.2C0 214.3 0 171.7 0 128.8C0 86 0 43 0 21.5L0 0Z" fill="#0066FF" stroke-linecap="round" stroke-linejoin="miter"></path></svg>