<svg id="visual" viewBox="0 0 900 900" width="900" height="900" xmlns="http://www.w3.org/2000/svg" xmlns:xlink="http://www.w3.org/1999/xlink" version="1.1"><rect x="0" y="0" width="900" height="900" fill="#aaf391"></rect><path d="M174 0L182.2 21.5C190.3 43 206.7 86 228.3 128.8C250 171.7 277 214.3 268.2 257.2C259.3 300 214.7 343 204 385.8C193.3 428.7 216.7 471.3 229.8 514.2C243 557 246 600 236.3 642.8C226.7 685.7 204.3 728.3 197.5 771.2C190.7 814 199.3 857 203.7 878.5L208 900L0 900L0 878.5C0 857 0 814 0 771.2C0 728.3 0 685.7 0 642.8C0 600 0 557 0 514.2C0 471.3 0 428.7 0 385.8C0 343 0 300 0 257.2C0 214.3 0 171.7 0 128.8C0 86 0 43 0 21.5L0 0Z" fill="#0066FF" stroke-linecap="round" stroke-linejoin="miter"></path></svg>