<svg xlink="http://www.w3.org/1999/xlink" viewBox="0 0 5000 5000" xmlns="http://www.w3.org/2000/svg" style="transform: scale(1);"><defs><filter id="goo"><feGaussianBlur in="SourceGraphic" stdDeviation="5.725" result="blur"></feGaussianBlur><feColorMatrix in="blur" type="matrix" values="1 0 0 0 0 0 1 0 0 0 0 0 1 0 0 0 0 0 19 -9" result="good"></feColorMatrix><feComposite in="SourceGraphic" in2="goo" operator="atop"></feComposite></filter><path d="M277,253C269,273 248,280 232,270Q211,263 223,245Q224,219 248,223C257,237 263,243 277,253z" id="P0"></path><path d="M267,251L245,266L247,233L267,248L267,251z" id="P1"></path><path d="M245,223C251,236 254,237 263,226C277,237 279,256 268,270Q235,288 223,253L245,223z" id="P2"></path><path d="M258,259L250,262L240,243L257,240L258,259z" id="P3"></path><path d="M241,272L238,229C249,237 255,238 266,233C272,238 275,245 274,254C260,259 253,263 241,272z" id="P4"></path><path d="M257,239L258,261L249,263L245,238L257,239z" id="P5"></path></defs><rect id="RECT" width="5000" height="5000" fill="#4E4A4A"></rect><g id="group" fill="#22EF91" filter="url(#goo)" opacity="0.77"><use x="-250" y="283" href="#P1"></use><use x="116" y="525" href="#P0"></use><use x="-122" y="1567" href="#P2"></use><use x="-107" y="2007" href="#P5"></use><use x="-9" y="2661" href="#P1"></use><use x="127" y="3178" href="#P5"></use><use x="293" y="4158" href="#P0"></use><use x="103" y="4593" href="#P1"></use><use x="244" y="5472" href="#P2"></use><use x="1081" y="-19" href="#P5"></use><use x="586" y="645" href="#P5"></use><use x="852" y="1241" href="#P3"></use><use x="766" y="1819" href="#P0"></use><use x="685" y="2305" href="#P2"></use><use x="679" y="3224" href="#P4"></use><use x="904" y="4137" href="#P3"></use><use x="603" y="4302" href="#P2"></use><use x="671" y="5333" href="#P4"></use><use x="1599" y="-89" href="#P1"></use><use x="1421" y="1006" href="#P3"></use><use x="1558" y="1547" href="#P3"></use><use x="1686" y="1920" href="#P2"></use><use x="1802" y="2330" href="#P0"></use><use x="1343" y="3352" href="#P5"></use><use x="1801" y="4013" href="#P1"></use><use x="1542" y="4668" href="#P1"></use><use x="1723" y="5229" href="#P0"></use><use x="1895" y="58" href="#P2"></use><use x="2332" y="1019" href="#P5"></use><use x="2402" y="1453" href="#P3"></use><use x="2051" y="1840" href="#P4"></use><use x="2461" y="2675" href="#P2"></use><use x="2384" y="3383" href="#P0"></use><use x="2354" y="3727" href="#P3"></use><use x="2260" y="4341" href="#P4"></use><use x="2089" y="5338" href="#P4"></use><use x="2914" y="345" href="#P1"></use><use x="2542" y="549" href="#P1"></use><use x="2726" y="1151" href="#P1"></use><use x="3186" y="2060" href="#P4"></use><use x="2916" y="2513" href="#P5"></use><use x="2790" y="2995" href="#P1"></use><use x="2795" y="3758" href="#P4"></use><use x="2723" y="4499" href="#P5"></use><use x="2550" y="5361" href="#P0"></use><use x="3754" y="-74" href="#P2"></use><use x="3772" y="608" href="#P0"></use><use x="3651" y="1515" href="#P4"></use><use x="3820" y="2277" href="#P2"></use><use x="3422" y="2865" href="#P2"></use><use x="3655" y="2980" href="#P0"></use><use x="3286" y="3799" href="#P2"></use><use x="3355" y="4264" href="#P5"></use><use x="3276" y="4844" href="#P1"></use><use x="4165" y="-49" href="#P4"></use><use x="4357" y="433" href="#P2"></use><use x="3940" y="1031" href="#P2"></use><use x="4362" y="1691" href="#P0"></use><use x="4381" y="2735" href="#P4"></use><use x="4319" y="3049" href="#P1"></use><use x="4297" y="4097" href="#P3"></use><use x="3993" y="4812" href="#P2"></use><use x="4011" y="5377" href="#P4"></use><use x="4618" y="42" href="#P0"></use><use x="4803" y="1010" href="#P1"></use><use x="4777" y="1459" href="#P3"></use><use x="5071" y="1708" href="#P0"></use><use x="4754" y="2873" href="#P5"></use><use x="4706" y="3554" href="#P5"></use><use x="4935" y="3820" href="#P5"></use><use x="5093" y="4285" href="#P5"></use><use x="5096" y="4879" href="#P3"></use></g></svg>