<svg xmlns="http://www.w3.org/2000/svg" version="1.1" xmlns:xlink="http://www.w3.org/1999/xlink" xmlns:svgjs="http://svgjs.com/svgjs" width="1600" height="500" preserveAspectRatio="none" viewBox="0 0 1600 500"><g mask="url(&quot;#SvgjsMask9895&quot;)" fill="none"><rect width="1600" height="500" x="0" y="0" fill="url(#SvgjsLinearGradient9896)"></rect><path d="M-95.1 378.51L-95.1 378.51" stroke="rgba(227, 244, 244, 1)" stroke-width="1.5"></path><path d="M-95.1 378.51L-74.13 501.94" stroke="rgba(227, 244, 244, 1)" stroke-width="1.5"></path><path d="M-95.1 378.51L75.87 405.67" stroke="rgba(227, 244, 244, 1)" stroke-width="1.5"></path><path d="M-95.1 378.51L61.86 542" stroke="rgba(227, 244, 244, 1)" stroke-width="1.5"></path><path d="M-95.1 378.51L209.34 399.71" stroke="rgba(227, 244, 244, 1)" stroke-width="1.5"></path><path d="M-95.1 378.51L-100.56 705.37" stroke="rgba(227, 244, 244, 1)" stroke-width="1.5"></path><path d="M-74.13 501.94L-74.13 501.94" stroke="rgba(227, 244, 244, 1)" stroke-width="1.5"></path><path d="M-74.13 501.94L61.86 542" stroke="rgba(227, 244, 244, 1)" stroke-width="1.5"></path><path d="M-74.13 501.94L75.87 405.67" stroke="rgba(227, 244, 244, 1)" stroke-width="1.5"></path><path d="M-74.13 501.94L-100.56 705.37" stroke="rgba(227, 244, 244, 1)" stroke-width="1.5"></path><path d="M-100.56 705.37L-100.56 705.37" stroke="rgba(227, 244, 244, 1)" stroke-width="1.5"></path><path d="M-100.56 705.37L81.74 664.52" stroke="rgba(227, 244, 244, 1)" stroke-width="1.5"></path><path d="M-100.56 705.37L61.86 542" stroke="rgba(227, 244, 244, 1)" stroke-width="1.5"></path><path d="M75.87 405.67L75.87 405.67" stroke="rgba(227, 244, 244, 1)" stroke-width="1.5"></path><path d="M75.87 405.67L209.34 399.71" stroke="rgba(227, 244, 244, 1)" stroke-width="1.5"></path><path d="M75.87 405.67L61.86 542" stroke="rgba(227, 244, 244, 1)" stroke-width="1.5"></path><path d="M61.86 542L61.86 542" stroke="rgba(227, 244, 244, 1)" stroke-width="1.5"></path><path d="M61.86 542L81.74 664.52" stroke="rgba(227, 244, 244, 1)" stroke-width="1.5"></path><path d="M81.74 664.52L81.74 664.52" stroke="rgba(227, 244, 244, 1)" stroke-width="1.5"></path><path d="M81.74 664.52L217.74 702.33" stroke="rgba(227, 244, 244, 1)" stroke-width="1.5"></path><path d="M81.74 664.52L208.61 545.36" stroke="rgba(227, 244, 244, 1)" stroke-width="1.5"></path><path d="M209.34 399.71L209.34 399.71" stroke="rgba(227, 244, 244, 1)" stroke-width="1.5"></path><path d="M209.34 399.71L208.61 545.36" stroke="rgba(227, 244, 244, 1)" stroke-width="1.5"></path><path d="M209.34 399.71L399.17 389.35" stroke="rgba(227, 244, 244, 1)" stroke-width="1.5"></path><path d="M209.34 399.71L61.86 542" stroke="rgba(227, 244, 244, 1)" stroke-width="1.5"></path><path d="M209.34 399.71L403.68 501.68" stroke="rgba(227, 244, 244, 1)" stroke-width="1.5"></path><path d="M208.61 545.36L208.61 545.36" stroke="rgba(227, 244, 244, 1)" stroke-width="1.5"></path><path d="M208.61 545.36L61.86 542" stroke="rgba(227, 244, 244, 1)" stroke-width="1.5"></path><path d="M208.61 545.36L217.74 702.33" stroke="rgba(227, 244, 244, 1)" stroke-width="1.5"></path><path d="M217.74 702.33L217.74 702.33" stroke="rgba(227, 244, 244, 1)" stroke-width="1.5"></path><path d="M217.74 702.33L390.95 666.42" stroke="rgba(227, 244, 244, 1)" stroke-width="1.5"></path><path d="M217.74 702.33L61.86 542" stroke="rgba(227, 244, 244, 1)" stroke-width="1.5"></path><path d="M399.17 389.35L399.17 389.35" stroke="rgba(227, 244, 244, 1)" stroke-width="1.5"></path><path d="M399.17 389.35L403.68 501.68" stroke="rgba(227, 244, 244, 1)" stroke-width="1.5"></path><path d="M399.17 389.35L553.54 398.69" stroke="rgba(227, 244, 244, 1)" stroke-width="1.5"></path><path d="M399.17 389.35L514.44 557.85" stroke="rgba(227, 244, 244, 1)" stroke-width="1.5"></path><path d="M399.17 389.35L208.61 545.36" stroke="rgba(227, 244, 244, 1)" stroke-width="1.5"></path><path d="M403.68 501.68L403.68 501.68" stroke="rgba(227, 244, 244, 1)" stroke-width="1.5"></path><path d="M403.68 501.68L514.44 557.85" stroke="rgba(227, 244, 244, 1)" stroke-width="1.5"></path><path d="M403.68 501.68L390.95 666.42" stroke="rgba(227, 244, 244, 1)" stroke-width="1.5"></path><path d="M390.95 666.42L390.95 666.42" stroke="rgba(227, 244, 244, 1)" stroke-width="1.5"></path><path d="M390.95 666.42L547.55 679.03" stroke="rgba(227, 244, 244, 1)" stroke-width="1.5"></path><path d="M390.95 666.42L514.44 557.85" stroke="rgba(227, 244, 244, 1)" stroke-width="1.5"></path><path d="M553.54 398.69L553.54 398.69" stroke="rgba(227, 244, 244, 1)" stroke-width="1.5"></path><path d="M553.54 398.69L659.09 344.12" stroke="rgba(227, 244, 244, 1)" stroke-width="1.5"></path><path d="M553.54 398.69L514.44 557.85" stroke="rgba(227, 244, 244, 1)" stroke-width="1.5"></path><path d="M514.44 557.85L514.44 557.85" stroke="rgba(227, 244, 244, 1)" stroke-width="1.5"></path><path d="M514.44 557.85L547.55 679.03" stroke="rgba(227, 244, 244, 1)" stroke-width="1.5"></path><path d="M514.44 557.85L701.49 510.59" stroke="rgba(227, 244, 244, 1)" stroke-width="1.5"></path><path d="M547.55 679.03L547.55 679.03" stroke="rgba(227, 244, 244, 1)" stroke-width="1.5"></path><path d="M547.55 679.03L678.14 681.08" stroke="rgba(227, 244, 244, 1)" stroke-width="1.5"></path><path d="M547.55 679.03L701.49 510.59" stroke="rgba(227, 244, 244, 1)" stroke-width="1.5"></path><path d="M667.34 226.2L667.34 226.2" stroke="rgba(227, 244, 244, 1)" stroke-width="1.5"></path><path d="M667.34 226.2L659.09 344.12" stroke="rgba(227, 244, 244, 1)" stroke-width="1.5"></path><path d="M667.34 226.2L819.47 349.51" stroke="rgba(227, 244, 244, 1)" stroke-width="1.5"></path><path d="M659.09 344.12L659.09 344.12" stroke="rgba(227, 244, 244, 1)" stroke-width="1.5"></path><path d="M659.09 344.12L819.47 349.51" stroke="rgba(227, 244, 244, 1)" stroke-width="1.5"></path><path d="M659.09 344.12L701.49 510.59" stroke="rgba(227, 244, 244, 1)" stroke-width="1.5"></path><path d="M659.09 344.12L796.8 554.87" stroke="rgba(227, 244, 244, 1)" stroke-width="1.5"></path><path d="M701.49 510.59L701.49 510.59" stroke="rgba(227, 244, 244, 1)" stroke-width="1.5"></path><path d="M701.49 510.59L796.8 554.87" stroke="rgba(227, 244, 244, 1)" stroke-width="1.5"></path><path d="M701.49 510.59L678.14 681.08" stroke="rgba(227, 244, 244, 1)" stroke-width="1.5"></path><path d="M701.49 510.59L553.54 398.69" stroke="rgba(227, 244, 244, 1)" stroke-width="1.5"></path><path d="M701.49 510.59L819.47 349.51" stroke="rgba(227, 244, 244, 1)" stroke-width="1.5"></path><path d="M678.14 681.08L678.14 681.08" stroke="rgba(227, 244, 244, 1)" stroke-width="1.5"></path><path d="M678.14 681.08L795.93 706.71" stroke="rgba(227, 244, 244, 1)" stroke-width="1.5"></path><path d="M678.14 681.08L796.8 554.87" stroke="rgba(227, 244, 244, 1)" stroke-width="1.5"></path><path d="M678.14 681.08L514.44 557.85" stroke="rgba(227, 244, 244, 1)" stroke-width="1.5"></path><path d="M819.47 349.51L819.47 349.51" stroke="rgba(227, 244, 244, 1)" stroke-width="1.5"></path><path d="M819.47 349.51L957.18 391.84" stroke="rgba(227, 244, 244, 1)" stroke-width="1.5"></path><path d="M796.8 554.87L796.8 554.87" stroke="rgba(227, 244, 244, 1)" stroke-width="1.5"></path><path d="M796.8 554.87L944.9 535.44" stroke="rgba(227, 244, 244, 1)" stroke-width="1.5"></path><path d="M796.8 554.87L795.93 706.71" stroke="rgba(227, 244, 244, 1)" stroke-width="1.5"></path><path d="M796.8 554.87L819.47 349.51" stroke="rgba(227, 244, 244, 1)" stroke-width="1.5"></path><path d="M796.8 554.87L957.18 391.84" stroke="rgba(227, 244, 244, 1)" stroke-width="1.5"></path><path d="M795.93 706.71L795.93 706.71" stroke="rgba(227, 244, 244, 1)" stroke-width="1.5"></path><path d="M969.32 -66.82L969.32 -66.82" stroke="rgba(227, 244, 244, 1)" stroke-width="1.5"></path><path d="M969.32 -66.82L973.54 88.97" stroke="rgba(227, 244, 244, 1)" stroke-width="1.5"></path><path d="M969.32 -66.82L1103.94 68.02" stroke="rgba(227, 244, 244, 1)" stroke-width="1.5"></path><path d="M973.54 88.97L973.54 88.97" stroke="rgba(227, 244, 244, 1)" stroke-width="1.5"></path><path d="M973.54 88.97L1103.94 68.02" stroke="rgba(227, 244, 244, 1)" stroke-width="1.5"></path><path d="M973.54 88.97L982.71 247.54" stroke="rgba(227, 244, 244, 1)" stroke-width="1.5"></path><path d="M973.54 88.97L1111.66 209.5" stroke="rgba(227, 244, 244, 1)" stroke-width="1.5"></path><path d="M973.54 88.97L819.47 349.51" stroke="rgba(227, 244, 244, 1)" stroke-width="1.5"></path><path d="M973.54 88.97L957.18 391.84" stroke="rgba(227, 244, 244, 1)" stroke-width="1.5"></path><path d="M982.71 247.54L982.71 247.54" stroke="rgba(227, 244, 244, 1)" stroke-width="1.5"></path><path d="M982.71 247.54L1111.66 209.5" stroke="rgba(227, 244, 244, 1)" stroke-width="1.5"></path><path d="M982.71 247.54L957.18 391.84" stroke="rgba(227, 244, 244, 1)" stroke-width="1.5"></path><path d="M957.18 391.84L957.18 391.84" stroke="rgba(227, 244, 244, 1)" stroke-width="1.5"></path><path d="M957.18 391.84L944.9 535.44" stroke="rgba(227, 244, 244, 1)" stroke-width="1.5"></path><path d="M944.9 535.44L944.9 535.44" stroke="rgba(227, 244, 244, 1)" stroke-width="1.5"></path><path d="M944.9 535.44L982.66 698.52" stroke="rgba(227, 244, 244, 1)" stroke-width="1.5"></path><path d="M944.9 535.44L1121.75 644.34" stroke="rgba(227, 244, 244, 1)" stroke-width="1.5"></path><path d="M944.9 535.44L1155.45 548.37" stroke="rgba(227, 244, 244, 1)" stroke-width="1.5"></path><path d="M944.9 535.44L1124.83 406.2" stroke="rgba(227, 244, 244, 1)" stroke-width="1.5"></path><path d="M982.66 698.52L982.66 698.52" stroke="rgba(227, 244, 244, 1)" stroke-width="1.5"></path><path d="M982.66 698.52L1121.75 644.34" stroke="rgba(227, 244, 244, 1)" stroke-width="1.5"></path><path d="M982.66 698.52L795.93 706.71" stroke="rgba(227, 244, 244, 1)" stroke-width="1.5"></path><path d="M1103.94 68.02L1103.94 68.02" stroke="rgba(227, 244, 244, 1)" stroke-width="1.5"></path><path d="M1103.94 68.02L1111.66 209.5" stroke="rgba(227, 244, 244, 1)" stroke-width="1.5"></path><path d="M1103.94 68.02L1262.53 205.96" stroke="rgba(227, 244, 244, 1)" stroke-width="1.5"></path><path d="M1103.94 68.02L982.71 247.54" stroke="rgba(227, 244, 244, 1)" stroke-width="1.5"></path><path d="M1111.66 209.5L1111.66 209.5" stroke="rgba(227, 244, 244, 1)" stroke-width="1.5"></path><path d="M1124.83 406.2L1124.83 406.2" stroke="rgba(227, 244, 244, 1)" stroke-width="1.5"></path><path d="M1124.83 406.2L1237.77 338.9" stroke="rgba(227, 244, 244, 1)" stroke-width="1.5"></path><path d="M1124.83 406.2L1155.45 548.37" stroke="rgba(227, 244, 244, 1)" stroke-width="1.5"></path><path d="M1155.45 548.37L1155.45 548.37" stroke="rgba(227, 244, 244, 1)" stroke-width="1.5"></path><path d="M1155.45 548.37L1121.75 644.34" stroke="rgba(227, 244, 244, 1)" stroke-width="1.5"></path><path d="M1155.45 548.37L1255.79 506.38" stroke="rgba(227, 244, 244, 1)" stroke-width="1.5"></path><path d="M1155.45 548.37L1299.25 647.39" stroke="rgba(227, 244, 244, 1)" stroke-width="1.5"></path><path d="M1155.45 548.37L1237.77 338.9" stroke="rgba(227, 244, 244, 1)" stroke-width="1.5"></path><path d="M1121.75 644.34L1121.75 644.34" stroke="rgba(227, 244, 244, 1)" stroke-width="1.5"></path><path d="M1121.75 644.34L1299.25 647.39" stroke="rgba(227, 244, 244, 1)" stroke-width="1.5"></path><path d="M1281.13 -74.27L1281.13 -74.27" stroke="rgba(227, 244, 244, 1)" stroke-width="1.5"></path><path d="M1281.13 -74.27L1451.11 -74.55" stroke="rgba(227, 244, 244, 1)" stroke-width="1.5"></path><path d="M1281.13 -74.27L1403.85 70.13" stroke="rgba(227, 244, 244, 1)" stroke-width="1.5"></path><path d="M1281.13 -74.27L1103.94 68.02" stroke="rgba(227, 244, 244, 1)" stroke-width="1.5"></path><path d="M1281.13 -74.27L1262.53 205.96" stroke="rgba(227, 244, 244, 1)" stroke-width="1.5"></path><path d="M1281.13 -74.27L1586.49 -106.54" stroke="rgba(227, 244, 244, 1)" stroke-width="1.5"></path><path d="M1281.13 -74.27L969.32 -66.82" stroke="rgba(227, 244, 244, 1)" stroke-width="1.5"></path><path d="M1262.53 205.96L1262.53 205.96" stroke="rgba(227, 244, 244, 1)" stroke-width="1.5"></path><path d="M1262.53 205.96L1237.77 338.9" stroke="rgba(227, 244, 244, 1)" stroke-width="1.5"></path><path d="M1262.53 205.96L1405.73 241.64" stroke="rgba(227, 244, 244, 1)" stroke-width="1.5"></path><path d="M1262.53 205.96L1111.66 209.5" stroke="rgba(227, 244, 244, 1)" stroke-width="1.5"></path><path d="M1237.77 338.9L1237.77 338.9" stroke="rgba(227, 244, 244, 1)" stroke-width="1.5"></path><path d="M1255.79 506.38L1255.79 506.38" stroke="rgba(227, 244, 244, 1)" stroke-width="1.5"></path><path d="M1255.79 506.38L1299.25 647.39" stroke="rgba(227, 244, 244, 1)" stroke-width="1.5"></path><path d="M1255.79 506.38L1124.83 406.2" stroke="rgba(227, 244, 244, 1)" stroke-width="1.5"></path><path d="M1255.79 506.38L1237.77 338.9" stroke="rgba(227, 244, 244, 1)" stroke-width="1.5"></path><path d="M1255.79 506.38L1121.75 644.34" stroke="rgba(227, 244, 244, 1)" stroke-width="1.5"></path><path d="M1299.25 647.39L1299.25 647.39" stroke="rgba(227, 244, 244, 1)" stroke-width="1.5"></path><path d="M1299.25 647.39L1393.75 662.8" stroke="rgba(227, 244, 244, 1)" stroke-width="1.5"></path><path d="M1451.11 -74.55L1451.11 -74.55" stroke="rgba(227, 244, 244, 1)" stroke-width="1.5"></path><path d="M1451.11 -74.55L1586.49 -106.54" stroke="rgba(227, 244, 244, 1)" stroke-width="1.5"></path><path d="M1451.11 -74.55L1403.85 70.13" stroke="rgba(227, 244, 244, 1)" stroke-width="1.5"></path><path d="M1451.11 -74.55L1612.09 43.66" stroke="rgba(227, 244, 244, 1)" stroke-width="1.5"></path><path d="M1451.11 -74.55L1688.26 87.23" stroke="rgba(227, 244, 244, 1)" stroke-width="1.5"></path><path d="M1451.11 -74.55L1405.73 241.64" stroke="rgba(227, 244, 244, 1)" stroke-width="1.5"></path><path d="M1403.85 70.13L1403.85 70.13" stroke="rgba(227, 244, 244, 1)" stroke-width="1.5"></path><path d="M1403.85 70.13L1405.73 241.64" stroke="rgba(227, 244, 244, 1)" stroke-width="1.5"></path><path d="M1405.73 241.64L1405.73 241.64" stroke="rgba(227, 244, 244, 1)" stroke-width="1.5"></path><path d="M1405.73 241.64L1407.11 370.3" stroke="rgba(227, 244, 244, 1)" stroke-width="1.5"></path><path d="M1407.11 370.3L1407.11 370.3" stroke="rgba(227, 244, 244, 1)" stroke-width="1.5"></path><path d="M1407.11 370.3L1572.09 354.82" stroke="rgba(227, 244, 244, 1)" stroke-width="1.5"></path><path d="M1441.86 560.7L1441.86 560.7" stroke="rgba(227, 244, 244, 1)" stroke-width="1.5"></path><path d="M1441.86 560.7L1393.75 662.8" stroke="rgba(227, 244, 244, 1)" stroke-width="1.5"></path><path d="M1441.86 560.7L1585.37 548.36" stroke="rgba(227, 244, 244, 1)" stroke-width="1.5"></path><path d="M1441.86 560.7L1299.25 647.39" stroke="rgba(227, 244, 244, 1)" stroke-width="1.5"></path><path d="M1441.86 560.7L1580.86 669.32" stroke="rgba(227, 244, 244, 1)" stroke-width="1.5"></path><path d="M1441.86 560.7L1407.11 370.3" stroke="rgba(227, 244, 244, 1)" stroke-width="1.5"></path><path d="M1393.75 662.8L1393.75 662.8" stroke="rgba(227, 244, 244, 1)" stroke-width="1.5"></path><path d="M1393.75 662.8L1580.86 669.32" stroke="rgba(227, 244, 244, 1)" stroke-width="1.5"></path><path d="M1393.75 662.8L1255.79 506.38" stroke="rgba(227, 244, 244, 1)" stroke-width="1.5"></path><path d="M1393.75 662.8L1585.37 548.36" stroke="rgba(227, 244, 244, 1)" stroke-width="1.5"></path><path d="M1393.75 662.8L1155.45 548.37" stroke="rgba(227, 244, 244, 1)" stroke-width="1.5"></path><path d="M1586.49 -106.54L1586.49 -106.54" stroke="rgba(227, 244, 244, 1)" stroke-width="1.5"></path><path d="M1586.49 -106.54L1612.09 43.66" stroke="rgba(227, 244, 244, 1)" stroke-width="1.5"></path><path d="M1586.49 -106.54L1688.26 87.23" stroke="rgba(227, 244, 244, 1)" stroke-width="1.5"></path><path d="M1586.49 -106.54L1403.85 70.13" stroke="rgba(227, 244, 244, 1)" stroke-width="1.5"></path><path d="M1612.09 43.66L1612.09 43.66" stroke="rgba(227, 244, 244, 1)" stroke-width="1.5"></path><path d="M1612.09 43.66L1688.26 87.23" stroke="rgba(227, 244, 244, 1)" stroke-width="1.5"></path><path d="M1612.09 43.66L1719.21 213.35" stroke="rgba(227, 244, 244, 1)" stroke-width="1.5"></path><path d="M1612.09 43.66L1403.85 70.13" stroke="rgba(227, 244, 244, 1)" stroke-width="1.5"></path><path d="M1606.2 253.54L1606.2 253.54" stroke="rgba(227, 244, 244, 1)" stroke-width="1.5"></path><path d="M1606.2 253.54L1572.09 354.82" stroke="rgba(227, 244, 244, 1)" stroke-width="1.5"></path><path d="M1606.2 253.54L1719.21 213.35" stroke="rgba(227, 244, 244, 1)" stroke-width="1.5"></path><path d="M1606.2 253.54L1688.26 87.23" stroke="rgba(227, 244, 244, 1)" stroke-width="1.5"></path><path d="M1572.09 354.82L1572.09 354.82" stroke="rgba(227, 244, 244, 1)" stroke-width="1.5"></path><path d="M1572.09 354.82L1723.93 400.64" stroke="rgba(227, 244, 244, 1)" stroke-width="1.5"></path><path d="M1572.09 354.82L1585.37 548.36" stroke="rgba(227, 244, 244, 1)" stroke-width="1.5"></path><path d="M1572.09 354.82L1405.73 241.64" stroke="rgba(227, 244, 244, 1)" stroke-width="1.5"></path><path d="M1572.09 354.82L1719.21 213.35" stroke="rgba(227, 244, 244, 1)" stroke-width="1.5"></path><path d="M1585.37 548.36L1585.37 548.36" stroke="rgba(227, 244, 244, 1)" stroke-width="1.5"></path><path d="M1585.37 548.36L1580.86 669.32" stroke="rgba(227, 244, 244, 1)" stroke-width="1.5"></path><path d="M1585.37 548.36L1714.77 516.3" stroke="rgba(227, 244, 244, 1)" stroke-width="1.5"></path><path d="M1580.86 669.32L1580.86 669.32" stroke="rgba(227, 244, 244, 1)" stroke-width="1.5"></path><path d="M1580.86 669.32L1693.76 654.45" stroke="rgba(227, 244, 244, 1)" stroke-width="1.5"></path><path d="M1688.26 87.23L1688.26 87.23" stroke="rgba(227, 244, 244, 1)" stroke-width="1.5"></path><path d="M1688.26 87.23L1719.21 213.35" stroke="rgba(227, 244, 244, 1)" stroke-width="1.5"></path><path d="M1688.26 87.23L1403.85 70.13" stroke="rgba(227, 244, 244, 1)" stroke-width="1.5"></path><path d="M1719.21 213.35L1719.21 213.35" stroke="rgba(227, 244, 244, 1)" stroke-width="1.5"></path><path d="M1719.21 213.35L1723.93 400.64" stroke="rgba(227, 244, 244, 1)" stroke-width="1.5"></path><path d="M1723.93 400.64L1723.93 400.64" stroke="rgba(227, 244, 244, 1)" stroke-width="1.5"></path><path d="M1723.93 400.64L1714.77 516.3" stroke="rgba(227, 244, 244, 1)" stroke-width="1.5"></path><path d="M1723.93 400.64L1606.2 253.54" stroke="rgba(227, 244, 244, 1)" stroke-width="1.5"></path><path d="M1723.93 400.64L1585.37 548.36" stroke="rgba(227, 244, 244, 1)" stroke-width="1.5"></path><path d="M1723.93 400.64L1693.76 654.45" stroke="rgba(227, 244, 244, 1)" stroke-width="1.5"></path><path d="M1714.77 516.3L1714.77 516.3" stroke="rgba(227, 244, 244, 1)" stroke-width="1.5"></path><path d="M1693.76 654.45L1693.76 654.45" stroke="rgba(227, 244, 244, 1)" stroke-width="1.5"></path><path d="M1693.76 654.45L1714.77 516.3" stroke="rgba(227, 244, 244, 1)" stroke-width="1.5"></path><path d="M1693.76 654.45L1585.37 548.36" stroke="rgba(227, 244, 244, 1)" stroke-width="1.5"></path><circle r="5" cx="-95.1" cy="378.51" fill="rgba(227, 244, 244, 1)"></circle><circle r="5" cx="-74.13" cy="501.94" fill="rgba(227, 244, 244, 1)"></circle><circle r="5" cx="-100.56" cy="705.37" fill="rgba(227, 244, 244, 1)"></circle><circle r="5" cx="75.87" cy="405.67" fill="rgba(227, 244, 244, 1)"></circle><circle r="5" cx="61.86" cy="542" fill="rgba(227, 244, 244, 1)"></circle><circle r="5" cx="81.74" cy="664.52" fill="rgba(227, 244, 244, 1)"></circle><circle r="5" cx="209.34" cy="399.71" fill="rgba(227, 244, 244, 1)"></circle><circle r="5" cx="208.61" cy="545.36" fill="rgba(227, 244, 244, 1)"></circle><circle r="5" cx="217.74" cy="702.33" fill="rgba(227, 244, 244, 1)"></circle><circle r="5" cx="399.17" cy="389.35" fill="rgba(227, 244, 244, 1)"></circle><circle r="5" cx="403.68" cy="501.68" fill="rgba(227, 244, 244, 1)"></circle><circle r="5" cx="390.95" cy="666.42" fill="rgba(227, 244, 244, 1)"></circle><circle r="5" cx="553.54" cy="398.69" fill="rgba(227, 244, 244, 1)"></circle><circle r="5" cx="514.44" cy="557.85" fill="rgba(227, 244, 244, 1)"></circle><circle r="5" cx="547.55" cy="679.03" fill="rgba(227, 244, 244, 1)"></circle><circle r="5" cx="667.34" cy="226.2" fill="rgba(227, 244, 244, 1)"></circle><circle r="5" cx="659.09" cy="344.12" fill="rgba(227, 244, 244, 1)"></circle><circle r="5" cx="701.49" cy="510.59" fill="rgba(227, 244, 244, 1)"></circle><circle r="5" cx="678.14" cy="681.08" fill="rgba(227, 244, 244, 1)"></circle><circle r="5" cx="819.47" cy="349.51" fill="rgba(227, 244, 244, 1)"></circle><circle r="5" cx="796.8" cy="554.87" fill="rgba(227, 244, 244, 1)"></circle><circle r="5" cx="795.93" cy="706.71" fill="rgba(227, 244, 244, 1)"></circle><circle r="5" cx="969.32" cy="-66.82" fill="rgba(227, 244, 244, 1)"></circle><circle r="5" cx="973.54" cy="88.97" fill="rgba(227, 244, 244, 1)"></circle><circle r="5" cx="982.71" cy="247.54" fill="rgba(227, 244, 244, 1)"></circle><circle r="5" cx="957.18" cy="391.84" fill="rgba(227, 244, 244, 1)"></circle><circle r="5" cx="944.9" cy="535.44" fill="rgba(227, 244, 244, 1)"></circle><circle r="5" cx="982.66" cy="698.52" fill="rgba(227, 244, 244, 1)"></circle><circle r="5" cx="1103.94" cy="68.02" fill="rgba(227, 244, 244, 1)"></circle><circle r="5" cx="1111.66" cy="209.5" fill="rgba(227, 244, 244, 1)"></circle><circle r="5" cx="1124.83" cy="406.2" fill="rgba(227, 244, 244, 1)"></circle><circle r="5" cx="1155.45" cy="548.37" fill="rgba(227, 244, 244, 1)"></circle><circle r="5" cx="1121.75" cy="644.34" fill="rgba(227, 244, 244, 1)"></circle><circle r="5" cx="1281.13" cy="-74.27" fill="rgba(227, 244, 244, 1)"></circle><circle r="5" cx="1262.53" cy="205.96" fill="rgba(227, 244, 244, 1)"></circle><circle r="5" cx="1237.77" cy="338.9" fill="rgba(227, 244, 244, 1)"></circle><circle r="5" cx="1255.79" cy="506.38" fill="rgba(227, 244, 244, 1)"></circle><circle r="5" cx="1299.25" cy="647.39" fill="rgba(227, 244, 244, 1)"></circle><circle r="5" cx="1451.11" cy="-74.55" fill="rgba(227, 244, 244, 1)"></circle><circle r="5" cx="1403.85" cy="70.13" fill="rgba(227, 244, 244, 1)"></circle><circle r="5" cx="1405.73" cy="241.64" fill="rgba(227, 244, 244, 1)"></circle><circle r="5" cx="1407.11" cy="370.3" fill="rgba(227, 244, 244, 1)"></circle><circle r="5" cx="1441.86" cy="560.7" fill="rgba(227, 244, 244, 1)"></circle><circle r="5" cx="1393.75" cy="662.8" fill="rgba(227, 244, 244, 1)"></circle><circle r="5" cx="1586.49" cy="-106.54" fill="rgba(227, 244, 244, 1)"></circle><circle r="5" cx="1612.09" cy="43.66" fill="rgba(227, 244, 244, 1)"></circle><circle r="5" cx="1606.2" cy="253.54" fill="rgba(227, 244, 244, 1)"></circle><circle r="5" cx="1572.09" cy="354.82" fill="rgba(227, 244, 244, 1)"></circle><circle r="5" cx="1585.37" cy="548.36" fill="rgba(227, 244, 244, 1)"></circle><circle r="5" cx="1580.86" cy="669.32" fill="rgba(227, 244, 244, 1)"></circle><circle r="5" cx="1688.26" cy="87.23" fill="rgba(227, 244, 244, 1)"></circle><circle r="5" cx="1719.21" cy="213.35" fill="rgba(227, 244, 244, 1)"></circle><circle r="5" cx="1723.93" cy="400.64" fill="rgba(227, 244, 244, 1)"></circle><circle r="5" cx="1714.77" cy="516.3" fill="rgba(227, 244, 244, 1)"></circle><circle r="5" cx="1693.76" cy="654.45" fill="rgba(227, 244, 244, 1)"></circle><path d="M365.98 502.51L365.98 502.51" stroke="hsl(136.39999999999998, 92.7%, 66.8%)" stroke-width="1.5"></path><path d="M365.98 502.51L378.03 383.65" stroke="hsl(136.39999999999998, 92.7%, 66.8%)" stroke-width="1.5"></path><path d="M365.98 502.51L195.98 542.77" stroke="hsl(136.39999999999998, 92.7%, 66.8%)" stroke-width="1.5"></path><path d="M357.47 700.83L357.47 700.83" stroke="hsl(136.39999999999998, 92.7%, 66.8%)" stroke-width="1.5"></path><path d="M357.47 700.83L213.26 648.91" stroke="hsl(136.39999999999998, 92.7%, 66.8%)" stroke-width="1.5"></path><path d="M357.47 700.83L542.04 641.87" stroke="hsl(136.39999999999998, 92.7%, 66.8%)" stroke-width="1.5"></path><path d="M357.47 700.83L365.98 502.51" stroke="hsl(136.39999999999998, 92.7%, 66.8%)" stroke-width="1.5"></path><path d="M542.04 641.87L542.04 641.87" stroke="hsl(136.39999999999998, 92.7%, 66.8%)" stroke-width="1.5"></path><path d="M542.04 641.87L553.36 548.16" stroke="hsl(136.39999999999998, 92.7%, 66.8%)" stroke-width="1.5"></path><path d="M542.04 641.87L639.7 647.7" stroke="hsl(136.39999999999998, 92.7%, 66.8%)" stroke-width="1.5"></path><path d="M639.7 647.7L639.7 647.7" stroke="hsl(136.39999999999998, 92.7%, 66.8%)" stroke-width="1.5"></path><path d="M639.7 647.7L553.36 548.16" stroke="hsl(136.39999999999998, 92.7%, 66.8%)" stroke-width="1.5"></path><path d="M639.7 647.7L707.28 509.75" stroke="hsl(136.39999999999998, 92.7%, 66.8%)" stroke-width="1.5"></path><path d="M639.7 647.7L818.09 661.98" stroke="hsl(136.39999999999998, 92.7%, 66.8%)" stroke-width="1.5"></path><path d="M639.7 647.7L670.64 403.43" stroke="hsl(136.39999999999998, 92.7%, 66.8%)" stroke-width="1.5"></path><path d="M639.7 647.7L357.47 700.83" stroke="hsl(136.39999999999998, 92.7%, 66.8%)" stroke-width="1.5"></path><path d="M809.7 400.06L809.7 400.06" stroke="hsl(136.39999999999998, 92.7%, 66.8%)" stroke-width="1.5"></path><path d="M809.7 400.06L670.64 403.43" stroke="hsl(136.39999999999998, 92.7%, 66.8%)" stroke-width="1.5"></path><path d="M809.7 400.06L707.28 509.75" stroke="hsl(136.39999999999998, 92.7%, 66.8%)" stroke-width="1.5"></path><path d="M809.7 400.06L964.52 493.71" stroke="hsl(136.39999999999998, 92.7%, 66.8%)" stroke-width="1.5"></path><path d="M809.7 400.06L992.65 339.59" stroke="hsl(136.39999999999998, 92.7%, 66.8%)" stroke-width="1.5"></path><path d="M809.7 400.06L818.09 661.98" stroke="hsl(136.39999999999998, 92.7%, 66.8%)" stroke-width="1.5"></path><path d="M978.35 674.66L978.35 674.66" stroke="hsl(136.39999999999998, 92.7%, 66.8%)" stroke-width="1.5"></path><path d="M978.35 674.66L818.09 661.98" stroke="hsl(136.39999999999998, 92.7%, 66.8%)" stroke-width="1.5"></path><path d="M978.35 674.66L1158.61 689.18" stroke="hsl(136.39999999999998, 92.7%, 66.8%)" stroke-width="1.5"></path><path d="M978.35 674.66L964.52 493.71" stroke="hsl(136.39999999999998, 92.7%, 66.8%)" stroke-width="1.5"></path><path d="M1114.38 539.26L1114.38 539.26" stroke="hsl(136.39999999999998, 92.7%, 66.8%)" stroke-width="1.5"></path><path d="M1114.38 539.26L1136.39 409.62" stroke="hsl(136.39999999999998, 92.7%, 66.8%)" stroke-width="1.5"></path><path d="M1114.38 539.26L1250.31 492.94" stroke="hsl(136.39999999999998, 92.7%, 66.8%)" stroke-width="1.5"></path><path d="M1114.38 539.26L1158.61 689.18" stroke="hsl(136.39999999999998, 92.7%, 66.8%)" stroke-width="1.5"></path><path d="M1114.38 539.26L964.52 493.71" stroke="hsl(136.39999999999998, 92.7%, 66.8%)" stroke-width="1.5"></path><path d="M1114.38 539.26L978.35 674.66" stroke="hsl(136.39999999999998, 92.7%, 66.8%)" stroke-width="1.5"></path><path d="M1272.35 49.41L1272.35 49.41" stroke="hsl(136.39999999999998, 92.7%, 66.8%)" stroke-width="1.5"></path><path d="M1272.35 49.41L1295.29 190.11" stroke="hsl(136.39999999999998, 92.7%, 66.8%)" stroke-width="1.5"></path><path d="M1272.35 49.41L1446.2 97.56" stroke="hsl(136.39999999999998, 92.7%, 66.8%)" stroke-width="1.5"></path><path d="M1272.35 49.41L1156.51 188.4" stroke="hsl(136.39999999999998, 92.7%, 66.8%)" stroke-width="1.5"></path><path d="M1272.35 49.41L1450.89 -58.59" stroke="hsl(136.39999999999998, 92.7%, 66.8%)" stroke-width="1.5"></path><path d="M1272.35 49.41L1444.44 246.36" stroke="hsl(136.39999999999998, 92.7%, 66.8%)" stroke-width="1.5"></path><path d="M1446.2 97.56L1446.2 97.56" stroke="hsl(136.39999999999998, 92.7%, 66.8%)" stroke-width="1.5"></path><path d="M1446.2 97.56L1564.62 102.33" stroke="hsl(136.39999999999998, 92.7%, 66.8%)" stroke-width="1.5"></path><path d="M1446.2 97.56L1444.44 246.36" stroke="hsl(136.39999999999998, 92.7%, 66.8%)" stroke-width="1.5"></path><path d="M1608.27 670.33L1608.27 670.33" stroke="hsl(136.39999999999998, 92.7%, 66.8%)" stroke-width="1.5"></path><path d="M1608.27 670.33L1740.08 643.99" stroke="hsl(136.39999999999998, 92.7%, 66.8%)" stroke-width="1.5"></path><path d="M1608.27 670.33L1458.92 701.79" stroke="hsl(136.39999999999998, 92.7%, 66.8%)" stroke-width="1.5"></path><path d="M1608.27 670.33L1561.1 518.49" stroke="hsl(136.39999999999998, 92.7%, 66.8%)" stroke-width="1.5"></path><path d="M1743.08 -65.12L1743.08 -65.12" stroke="hsl(136.39999999999998, 92.7%, 66.8%)" stroke-width="1.5"></path><path d="M1743.08 -65.12L1742.58 52.09" stroke="hsl(136.39999999999998, 92.7%, 66.8%)" stroke-width="1.5"></path><path d="M1743.08 -65.12L1591.05 -43.29" stroke="hsl(136.39999999999998, 92.7%, 66.8%)" stroke-width="1.5"></path><path d="M1743.08 -65.12L1564.62 102.33" stroke="hsl(136.39999999999998, 92.7%, 66.8%)" stroke-width="1.5"></path><path d="M1743.08 -65.12L1450.89 -58.59" stroke="hsl(136.39999999999998, 92.7%, 66.8%)" stroke-width="1.5"></path><path d="M1743.08 -65.12L1741.17 234.99" stroke="hsl(136.39999999999998, 92.7%, 66.8%)" stroke-width="1.5"></path><path d="M1743.08 -65.12L1597.34 213.94" stroke="hsl(136.39999999999998, 92.7%, 66.8%)" stroke-width="1.5"></path><path d="M1742.58 52.09L1742.58 52.09" stroke="hsl(136.39999999999998, 92.7%, 66.8%)" stroke-width="1.5"></path><path d="M1742.58 52.09L1591.05 -43.29" stroke="hsl(136.39999999999998, 92.7%, 66.8%)" stroke-width="1.5"></path><path d="M1742.58 52.09L1741.17 234.99" stroke="hsl(136.39999999999998, 92.7%, 66.8%)" stroke-width="1.5"></path><path d="M1742.58 52.09L1564.62 102.33" stroke="hsl(136.39999999999998, 92.7%, 66.8%)" stroke-width="1.5"></path><path d="M1742.58 52.09L1597.34 213.94" stroke="hsl(136.39999999999998, 92.7%, 66.8%)" stroke-width="1.5"></path><path d="M1741.17 234.99L1741.17 234.99" stroke="hsl(136.39999999999998, 92.7%, 66.8%)" stroke-width="1.5"></path><path d="M1741.17 234.99L1703.05 339.72" stroke="hsl(136.39999999999998, 92.7%, 66.8%)" stroke-width="1.5"></path><path d="M1741.17 234.99L1597.34 213.94" stroke="hsl(136.39999999999998, 92.7%, 66.8%)" stroke-width="1.5"></path><path d="M1703.05 339.72L1703.05 339.72" stroke="hsl(136.39999999999998, 92.7%, 66.8%)" stroke-width="1.5"></path><path d="M1703.05 339.72L1551.41 387.39" stroke="hsl(136.39999999999998, 92.7%, 66.8%)" stroke-width="1.5"></path><path d="M-104.25 404.04L-104.25 404.04" stroke="hsl(136.39999999999998, 92.7%, 66.8%)" stroke-width="1.5"></path><path d="M-104.25 404.04L-89.38 498.26" stroke="hsl(136.39999999999998, 92.7%, 66.8%)" stroke-width="1.5"></path><path d="M-104.25 404.04L-43.82 644.95" stroke="hsl(136.39999999999998, 92.7%, 66.8%)" stroke-width="1.5"></path><path d="M-104.25 404.04L82.5 666.52" stroke="hsl(136.39999999999998, 92.7%, 66.8%)" stroke-width="1.5"></path><path d="M-104.25 404.04L195.98 542.77" stroke="hsl(136.39999999999998, 92.7%, 66.8%)" stroke-width="1.5"></path><path d="M-89.38 498.26L-89.38 498.26" stroke="hsl(136.39999999999998, 92.7%, 66.8%)" stroke-width="1.5"></path><path d="M-89.38 498.26L-43.82 644.95" stroke="hsl(136.39999999999998, 92.7%, 66.8%)" stroke-width="1.5"></path><path d="M-89.38 498.26L82.5 666.52" stroke="hsl(136.39999999999998, 92.7%, 66.8%)" stroke-width="1.5"></path><path d="M-89.38 498.26L195.98 542.77" stroke="hsl(136.39999999999998, 92.7%, 66.8%)" stroke-width="1.5"></path><path d="M-89.38 498.26L213.26 648.91" stroke="hsl(136.39999999999998, 92.7%, 66.8%)" stroke-width="1.5"></path><path d="M-89.38 498.26L365.98 502.51" stroke="hsl(136.39999999999998, 92.7%, 66.8%)" stroke-width="1.5"></path><path d="M-43.82 644.95L-43.82 644.95" stroke="hsl(136.39999999999998, 92.7%, 66.8%)" stroke-width="1.5"></path><path d="M-43.82 644.95L82.5 666.52" stroke="hsl(136.39999999999998, 92.7%, 66.8%)" stroke-width="1.5"></path><path d="M-43.82 644.95L213.26 648.91" stroke="hsl(136.39999999999998, 92.7%, 66.8%)" stroke-width="1.5"></path><path d="M82.5 666.52L82.5 666.52" stroke="hsl(136.39999999999998, 92.7%, 66.8%)" stroke-width="1.5"></path><path d="M82.5 666.52L213.26 648.91" stroke="hsl(136.39999999999998, 92.7%, 66.8%)" stroke-width="1.5"></path><path d="M82.5 666.52L195.98 542.77" stroke="hsl(136.39999999999998, 92.7%, 66.8%)" stroke-width="1.5"></path><path d="M195.98 542.77L195.98 542.77" stroke="hsl(136.39999999999998, 92.7%, 66.8%)" stroke-width="1.5"></path><path d="M195.98 542.77L213.26 648.91" stroke="hsl(136.39999999999998, 92.7%, 66.8%)" stroke-width="1.5"></path><path d="M213.26 648.91L213.26 648.91" stroke="hsl(136.39999999999998, 92.7%, 66.8%)" stroke-width="1.5"></path><path d="M378.03 383.65L378.03 383.65" stroke="hsl(136.39999999999998, 92.7%, 66.8%)" stroke-width="1.5"></path><path d="M378.03 383.65L553.36 548.16" stroke="hsl(136.39999999999998, 92.7%, 66.8%)" stroke-width="1.5"></path><path d="M378.03 383.65L195.98 542.77" stroke="hsl(136.39999999999998, 92.7%, 66.8%)" stroke-width="1.5"></path><path d="M378.03 383.65L670.64 403.43" stroke="hsl(136.39999999999998, 92.7%, 66.8%)" stroke-width="1.5"></path><path d="M378.03 383.65L542.04 641.87" stroke="hsl(136.39999999999998, 92.7%, 66.8%)" stroke-width="1.5"></path><path d="M553.36 548.16L553.36 548.16" stroke="hsl(136.39999999999998, 92.7%, 66.8%)" stroke-width="1.5"></path><path d="M670.64 403.43L670.64 403.43" stroke="hsl(136.39999999999998, 92.7%, 66.8%)" stroke-width="1.5"></path><path d="M670.64 403.43L707.28 509.75" stroke="hsl(136.39999999999998, 92.7%, 66.8%)" stroke-width="1.5"></path><path d="M670.64 403.43L553.36 548.16" stroke="hsl(136.39999999999998, 92.7%, 66.8%)" stroke-width="1.5"></path><path d="M670.64 403.43L542.04 641.87" stroke="hsl(136.39999999999998, 92.7%, 66.8%)" stroke-width="1.5"></path><path d="M707.28 509.75L707.28 509.75" stroke="hsl(136.39999999999998, 92.7%, 66.8%)" stroke-width="1.5"></path><path d="M707.28 509.75L553.36 548.16" stroke="hsl(136.39999999999998, 92.7%, 66.8%)" stroke-width="1.5"></path><path d="M818.09 661.98L818.09 661.98" stroke="hsl(136.39999999999998, 92.7%, 66.8%)" stroke-width="1.5"></path><path d="M992.65 339.59L992.65 339.59" stroke="hsl(136.39999999999998, 92.7%, 66.8%)" stroke-width="1.5"></path><path d="M992.65 339.59L964.52 493.71" stroke="hsl(136.39999999999998, 92.7%, 66.8%)" stroke-width="1.5"></path><path d="M992.65 339.59L1136.39 409.62" stroke="hsl(136.39999999999998, 92.7%, 66.8%)" stroke-width="1.5"></path><path d="M992.65 339.59L1156.51 188.4" stroke="hsl(136.39999999999998, 92.7%, 66.8%)" stroke-width="1.5"></path><path d="M992.65 339.59L1114.38 539.26" stroke="hsl(136.39999999999998, 92.7%, 66.8%)" stroke-width="1.5"></path><path d="M964.52 493.71L964.52 493.71" stroke="hsl(136.39999999999998, 92.7%, 66.8%)" stroke-width="1.5"></path><path d="M1156.51 188.4L1156.51 188.4" stroke="hsl(136.39999999999998, 92.7%, 66.8%)" stroke-width="1.5"></path><path d="M1156.51 188.4L1295.29 190.11" stroke="hsl(136.39999999999998, 92.7%, 66.8%)" stroke-width="1.5"></path><path d="M1156.51 188.4L1136.39 409.62" stroke="hsl(136.39999999999998, 92.7%, 66.8%)" stroke-width="1.5"></path><path d="M1136.39 409.62L1136.39 409.62" stroke="hsl(136.39999999999998, 92.7%, 66.8%)" stroke-width="1.5"></path><path d="M1136.39 409.62L1250.31 492.94" stroke="hsl(136.39999999999998, 92.7%, 66.8%)" stroke-width="1.5"></path><path d="M1136.39 409.62L1305.95 370.96" stroke="hsl(136.39999999999998, 92.7%, 66.8%)" stroke-width="1.5"></path><path d="M1158.61 689.18L1158.61 689.18" stroke="hsl(136.39999999999998, 92.7%, 66.8%)" stroke-width="1.5"></path><path d="M1158.61 689.18L1288.21 647.53" stroke="hsl(136.39999999999998, 92.7%, 66.8%)" stroke-width="1.5"></path><path d="M1158.61 689.18L1250.31 492.94" stroke="hsl(136.39999999999998, 92.7%, 66.8%)" stroke-width="1.5"></path><path d="M1158.61 689.18L964.52 493.71" stroke="hsl(136.39999999999998, 92.7%, 66.8%)" stroke-width="1.5"></path><path d="M1158.61 689.18L1136.39 409.62" stroke="hsl(136.39999999999998, 92.7%, 66.8%)" stroke-width="1.5"></path><path d="M1295.29 190.11L1295.29 190.11" stroke="hsl(136.39999999999998, 92.7%, 66.8%)" stroke-width="1.5"></path><path d="M1295.29 190.11L1444.44 246.36" stroke="hsl(136.39999999999998, 92.7%, 66.8%)" stroke-width="1.5"></path><path d="M1295.29 190.11L1446.2 97.56" stroke="hsl(136.39999999999998, 92.7%, 66.8%)" stroke-width="1.5"></path><path d="M1295.29 190.11L1305.95 370.96" stroke="hsl(136.39999999999998, 92.7%, 66.8%)" stroke-width="1.5"></path><path d="M1305.95 370.96L1305.95 370.96" stroke="hsl(136.39999999999998, 92.7%, 66.8%)" stroke-width="1.5"></path><path d="M1305.95 370.96L1250.31 492.94" stroke="hsl(136.39999999999998, 92.7%, 66.8%)" stroke-width="1.5"></path><path d="M1305.95 370.96L1460.52 362.59" stroke="hsl(136.39999999999998, 92.7%, 66.8%)" stroke-width="1.5"></path><path d="M1305.95 370.96L1430.38 488.17" stroke="hsl(136.39999999999998, 92.7%, 66.8%)" stroke-width="1.5"></path><path d="M1250.31 492.94L1250.31 492.94" stroke="hsl(136.39999999999998, 92.7%, 66.8%)" stroke-width="1.5"></path><path d="M1250.31 492.94L1288.21 647.53" stroke="hsl(136.39999999999998, 92.7%, 66.8%)" stroke-width="1.5"></path><path d="M1288.21 647.53L1288.21 647.53" stroke="hsl(136.39999999999998, 92.7%, 66.8%)" stroke-width="1.5"></path><path d="M1288.21 647.53L1458.92 701.79" stroke="hsl(136.39999999999998, 92.7%, 66.8%)" stroke-width="1.5"></path><path d="M1288.21 647.53L1114.38 539.26" stroke="hsl(136.39999999999998, 92.7%, 66.8%)" stroke-width="1.5"></path><path d="M1450.89 -58.59L1450.89 -58.59" stroke="hsl(136.39999999999998, 92.7%, 66.8%)" stroke-width="1.5"></path><path d="M1450.89 -58.59L1591.05 -43.29" stroke="hsl(136.39999999999998, 92.7%, 66.8%)" stroke-width="1.5"></path><path d="M1450.89 -58.59L1446.2 97.56" stroke="hsl(136.39999999999998, 92.7%, 66.8%)" stroke-width="1.5"></path><path d="M1450.89 -58.59L1564.62 102.33" stroke="hsl(136.39999999999998, 92.7%, 66.8%)" stroke-width="1.5"></path><path d="M1444.44 246.36L1444.44 246.36" stroke="hsl(136.39999999999998, 92.7%, 66.8%)" stroke-width="1.5"></path><path d="M1444.44 246.36L1460.52 362.59" stroke="hsl(136.39999999999998, 92.7%, 66.8%)" stroke-width="1.5"></path><path d="M1460.52 362.59L1460.52 362.59" stroke="hsl(136.39999999999998, 92.7%, 66.8%)" stroke-width="1.5"></path><path d="M1460.52 362.59L1551.41 387.39" stroke="hsl(136.39999999999998, 92.7%, 66.8%)" stroke-width="1.5"></path><path d="M1430.38 488.17L1430.38 488.17" stroke="hsl(136.39999999999998, 92.7%, 66.8%)" stroke-width="1.5"></path><path d="M1430.38 488.17L1460.52 362.59" stroke="hsl(136.39999999999998, 92.7%, 66.8%)" stroke-width="1.5"></path><path d="M1458.92 701.79L1458.92 701.79" stroke="hsl(136.39999999999998, 92.7%, 66.8%)" stroke-width="1.5"></path><path d="M1458.92 701.79L1561.1 518.49" stroke="hsl(136.39999999999998, 92.7%, 66.8%)" stroke-width="1.5"></path><path d="M1591.05 -43.29L1591.05 -43.29" stroke="hsl(136.39999999999998, 92.7%, 66.8%)" stroke-width="1.5"></path><path d="M1591.05 -43.29L1564.62 102.33" stroke="hsl(136.39999999999998, 92.7%, 66.8%)" stroke-width="1.5"></path><path d="M1591.05 -43.29L1446.2 97.56" stroke="hsl(136.39999999999998, 92.7%, 66.8%)" stroke-width="1.5"></path><path d="M1591.05 -43.29L1597.34 213.94" stroke="hsl(136.39999999999998, 92.7%, 66.8%)" stroke-width="1.5"></path><path d="M1564.62 102.33L1564.62 102.33" stroke="hsl(136.39999999999998, 92.7%, 66.8%)" stroke-width="1.5"></path><path d="M1564.62 102.33L1597.34 213.94" stroke="hsl(136.39999999999998, 92.7%, 66.8%)" stroke-width="1.5"></path><path d="M1597.34 213.94L1597.34 213.94" stroke="hsl(136.39999999999998, 92.7%, 66.8%)" stroke-width="1.5"></path><path d="M1597.34 213.94L1444.44 246.36" stroke="hsl(136.39999999999998, 92.7%, 66.8%)" stroke-width="1.5"></path><path d="M1597.34 213.94L1703.05 339.72" stroke="hsl(136.39999999999998, 92.7%, 66.8%)" stroke-width="1.5"></path><path d="M1597.34 213.94L1551.41 387.39" stroke="hsl(136.39999999999998, 92.7%, 66.8%)" stroke-width="1.5"></path><path d="M1551.41 387.39L1551.41 387.39" stroke="hsl(136.39999999999998, 92.7%, 66.8%)" stroke-width="1.5"></path><path d="M1561.1 518.49L1561.1 518.49" stroke="hsl(136.39999999999998, 92.7%, 66.8%)" stroke-width="1.5"></path><path d="M1561.1 518.49L1551.41 387.39" stroke="hsl(136.39999999999998, 92.7%, 66.8%)" stroke-width="1.5"></path><path d="M1561.1 518.49L1430.38 488.17" stroke="hsl(136.39999999999998, 92.7%, 66.8%)" stroke-width="1.5"></path><path d="M1740.08 643.99L1740.08 643.99" stroke="hsl(136.39999999999998, 92.7%, 66.8%)" stroke-width="1.5"></path><path d="M1740.08 643.99L1561.1 518.49" stroke="hsl(136.39999999999998, 92.7%, 66.8%)" stroke-width="1.5"></path><path d="M1740.08 643.99L1458.92 701.79" stroke="hsl(136.39999999999998, 92.7%, 66.8%)" stroke-width="1.5"></path><path d="M1740.08 643.99L1703.05 339.72" stroke="hsl(136.39999999999998, 92.7%, 66.8%)" stroke-width="1.5"></path><circle r="25" cx="365.98" cy="502.51" fill="url(#SvgjsRadialGradient9897)"></circle><circle r="25" cx="357.47" cy="700.83" fill="url(#SvgjsRadialGradient9897)"></circle><circle r="25" cx="542.04" cy="641.87" fill="url(#SvgjsRadialGradient9897)"></circle><circle r="25" cx="639.7" cy="647.7" fill="url(#SvgjsRadialGradient9897)"></circle><circle r="25" cx="809.7" cy="400.06" fill="url(#SvgjsRadialGradient9897)"></circle><circle r="25" cx="978.35" cy="674.66" fill="url(#SvgjsRadialGradient9897)"></circle><circle r="25" cx="1114.38" cy="539.26" fill="url(#SvgjsRadialGradient9897)"></circle><circle r="25" cx="1272.35" cy="49.41" fill="url(#SvgjsRadialGradient9897)"></circle><circle r="25" cx="1446.2" cy="97.56" fill="url(#SvgjsRadialGradient9897)"></circle><circle r="25" cx="1608.27" cy="670.33" fill="url(#SvgjsRadialGradient9897)"></circle><circle r="25" cx="1743.08" cy="-65.12" fill="url(#SvgjsRadialGradient9897)"></circle><circle r="25" cx="1742.58" cy="52.09" fill="url(#SvgjsRadialGradient9897)"></circle><circle r="25" cx="1741.17" cy="234.99" fill="url(#SvgjsRadialGradient9897)"></circle><circle r="25" cx="1703.05" cy="339.72" fill="url(#SvgjsRadialGradient9897)"></circle><circle r="5" cx="-104.25" cy="404.04" fill="#88fba7"></circle><circle r="5" cx="-89.38" cy="498.26" fill="#88fba7"></circle><circle r="5" cx="-43.82" cy="644.95" fill="#88fba7"></circle><circle r="5" cx="82.5" cy="666.52" fill="#88fba7"></circle><circle r="5" cx="195.98" cy="542.77" fill="#88fba7"></circle><circle r="5" cx="213.26" cy="648.91" fill="#88fba7"></circle><circle r="5" cx="378.03" cy="383.65" fill="#88fba7"></circle><circle r="5" cx="553.36" cy="548.16" fill="#88fba7"></circle><circle r="5" cx="670.64" cy="403.43" fill="#88fba7"></circle><circle r="5" cx="707.28" cy="509.75" fill="#88fba7"></circle><circle r="5" cx="818.09" cy="661.98" fill="#88fba7"></circle><circle r="5" cx="992.65" cy="339.59" fill="#88fba7"></circle><circle r="5" cx="964.52" cy="493.71" fill="#88fba7"></circle><circle r="5" cx="1156.51" cy="188.4" fill="#88fba7"></circle><circle r="5" cx="1136.39" cy="409.62" fill="#88fba7"></circle><circle r="5" cx="1158.61" cy="689.18" fill="#88fba7"></circle><circle r="5" cx="1295.29" cy="190.11" fill="#88fba7"></circle><circle r="5" cx="1305.95" cy="370.96" fill="#88fba7"></circle><circle r="5" cx="1250.31" cy="492.94" fill="#88fba7"></circle><circle r="5" cx="1288.21" cy="647.53" fill="#88fba7"></circle><circle r="5" cx="1450.89" cy="-58.59" fill="#88fba7"></circle><circle r="5" cx="1444.44" cy="246.36" fill="#88fba7"></circle><circle r="5" cx="1460.52" cy="362.59" fill="#88fba7"></circle><circle r="5" cx="1430.38" cy="488.17" fill="#88fba7"></circle><circle r="5" cx="1458.92" cy="701.79" fill="#88fba7"></circle><circle r="5" cx="1591.05" cy="-43.29" fill="#88fba7"></circle><circle r="5" cx="1564.62" cy="102.33" fill="#88fba7"></circle><circle r="5" cx="1597.34" cy="213.94" fill="#88fba7"></circle><circle r="5" cx="1551.41" cy="387.39" fill="#88fba7"></circle><circle r="5" cx="1561.1" cy="518.49" fill="#88fba7"></circle><circle r="5" cx="1740.08" cy="643.99" fill="#88fba7"></circle></g><defs><mask id="SvgjsMask9895"><rect width="1600" height="500" fill="#ffffff"></rect></mask><linearGradient x1="0%" y1="50%" x2="100%" y2="50%" gradientUnits="userSpaceOnUse" id="SvgjsLinearGradient9896"><stop stop-color="rgba(32, 138, 171, 1)" offset="0.18"></stop><stop stop-color="rgba(120, 210, 123, 1)" offset="1"></stop></linearGradient><radialGradient id="SvgjsRadialGradient9897"><stop stop-color="#ffffff" offset="0.1"></stop><stop stop-color="rgba(16, 246, 79, 1)" offset="0.2"></stop><stop stop-color="rgba(16, 246, 79, 0)" offset="1"></stop></radialGradient></defs></svg>