<svg xmlns="http://www.w3.org/2000/svg" version="1.1" xmlns:xlink="http://www.w3.org/1999/xlink" xmlns:svgjs="http://svgjs.com/svgjs" width="1440" height="560" preserveAspectRatio="none" viewBox="0 0 1440 560"><g mask="url(&quot;#SvgjsMask1006&quot;)" fill="none"><path d="M-101.64 394.48L-101.64 394.48" stroke="rgba(10, 19, 31, 1)" stroke-width="1.5"></path><path d="M-101.64 394.48L-112.19 525.03" stroke="rgba(10, 19, 31, 1)" stroke-width="1.5"></path><path d="M-101.64 394.48L73.79 512.34" stroke="rgba(10, 19, 31, 1)" stroke-width="1.5"></path><path d="M-101.64 394.48L108.3 346.46" stroke="rgba(10, 19, 31, 1)" stroke-width="1.5"></path><path d="M-112.19 525.03L-112.19 525.03" stroke="rgba(10, 19, 31, 1)" stroke-width="1.5"></path><path d="M-112.19 525.03L-62.17 677.28" stroke="rgba(10, 19, 31, 1)" stroke-width="1.5"></path><path d="M-112.19 525.03L73.79 512.34" stroke="rgba(10, 19, 31, 1)" stroke-width="1.5"></path><path d="M-112.19 525.03L105.17 705.99" stroke="rgba(10, 19, 31, 1)" stroke-width="1.5"></path><path d="M-112.19 525.03L108.3 346.46" stroke="rgba(10, 19, 31, 1)" stroke-width="1.5"></path><path d="M-112.19 525.03L229.33 489.46" stroke="rgba(10, 19, 31, 1)" stroke-width="1.5"></path><path d="M-62.17 677.28L-62.17 677.28" stroke="rgba(10, 19, 31, 1)" stroke-width="1.5"></path><path d="M-62.17 677.28L105.17 705.99" stroke="rgba(10, 19, 31, 1)" stroke-width="1.5"></path><path d="M-62.17 677.28L73.79 512.34" stroke="rgba(10, 19, 31, 1)" stroke-width="1.5"></path><path d="M108.3 346.46L108.3 346.46" stroke="rgba(10, 19, 31, 1)" stroke-width="1.5"></path><path d="M108.3 346.46L233.89 368.58" stroke="rgba(10, 19, 31, 1)" stroke-width="1.5"></path><path d="M108.3 346.46L73.79 512.34" stroke="rgba(10, 19, 31, 1)" stroke-width="1.5"></path><path d="M73.79 512.34L73.79 512.34" stroke="rgba(10, 19, 31, 1)" stroke-width="1.5"></path><path d="M73.79 512.34L229.33 489.46" stroke="rgba(10, 19, 31, 1)" stroke-width="1.5"></path><path d="M73.79 512.34L105.17 705.99" stroke="rgba(10, 19, 31, 1)" stroke-width="1.5"></path><path d="M105.17 705.99L105.17 705.99" stroke="rgba(10, 19, 31, 1)" stroke-width="1.5"></path><path d="M105.17 705.99L243.62 679.12" stroke="rgba(10, 19, 31, 1)" stroke-width="1.5"></path><path d="M105.17 705.99L229.33 489.46" stroke="rgba(10, 19, 31, 1)" stroke-width="1.5"></path><path d="M105.17 705.99L384.52 688.56" stroke="rgba(10, 19, 31, 1)" stroke-width="1.5"></path><path d="M233.89 368.58L233.89 368.58" stroke="rgba(10, 19, 31, 1)" stroke-width="1.5"></path><path d="M233.89 368.58L229.33 489.46" stroke="rgba(10, 19, 31, 1)" stroke-width="1.5"></path><path d="M233.89 368.58L373.99 342.84" stroke="rgba(10, 19, 31, 1)" stroke-width="1.5"></path><path d="M233.89 368.58L354.11 515.99" stroke="rgba(10, 19, 31, 1)" stroke-width="1.5"></path><path d="M229.33 489.46L229.33 489.46" stroke="rgba(10, 19, 31, 1)" stroke-width="1.5"></path><path d="M229.33 489.46L354.11 515.99" stroke="rgba(10, 19, 31, 1)" stroke-width="1.5"></path><path d="M243.62 679.12L243.62 679.12" stroke="rgba(10, 19, 31, 1)" stroke-width="1.5"></path><path d="M243.62 679.12L384.52 688.56" stroke="rgba(10, 19, 31, 1)" stroke-width="1.5"></path><path d="M243.62 679.12L229.33 489.46" stroke="rgba(10, 19, 31, 1)" stroke-width="1.5"></path><path d="M243.62 679.12L354.11 515.99" stroke="rgba(10, 19, 31, 1)" stroke-width="1.5"></path><path d="M243.62 679.12L73.79 512.34" stroke="rgba(10, 19, 31, 1)" stroke-width="1.5"></path><path d="M373.99 342.84L373.99 342.84" stroke="rgba(10, 19, 31, 1)" stroke-width="1.5"></path><path d="M373.99 342.84L487.93 394.13" stroke="rgba(10, 19, 31, 1)" stroke-width="1.5"></path><path d="M354.11 515.99L354.11 515.99" stroke="rgba(10, 19, 31, 1)" stroke-width="1.5"></path><path d="M354.11 515.99L506.49 527.85" stroke="rgba(10, 19, 31, 1)" stroke-width="1.5"></path><path d="M354.11 515.99L373.99 342.84" stroke="rgba(10, 19, 31, 1)" stroke-width="1.5"></path><path d="M354.11 515.99L384.52 688.56" stroke="rgba(10, 19, 31, 1)" stroke-width="1.5"></path><path d="M354.11 515.99L487.93 394.13" stroke="rgba(10, 19, 31, 1)" stroke-width="1.5"></path><path d="M384.52 688.56L384.52 688.56" stroke="rgba(10, 19, 31, 1)" stroke-width="1.5"></path><path d="M384.52 688.56L500.46 682.13" stroke="rgba(10, 19, 31, 1)" stroke-width="1.5"></path><path d="M384.52 688.56L506.49 527.85" stroke="rgba(10, 19, 31, 1)" stroke-width="1.5"></path><path d="M487.93 394.13L487.93 394.13" stroke="rgba(10, 19, 31, 1)" stroke-width="1.5"></path><path d="M487.93 394.13L506.49 527.85" stroke="rgba(10, 19, 31, 1)" stroke-width="1.5"></path><path d="M506.49 527.85L506.49 527.85" stroke="rgba(10, 19, 31, 1)" stroke-width="1.5"></path><path d="M506.49 527.85L646.33 523.57" stroke="rgba(10, 19, 31, 1)" stroke-width="1.5"></path><path d="M506.49 527.85L500.46 682.13" stroke="rgba(10, 19, 31, 1)" stroke-width="1.5"></path><path d="M500.46 682.13L500.46 682.13" stroke="rgba(10, 19, 31, 1)" stroke-width="1.5"></path><path d="M500.46 682.13L709.52 711.38" stroke="rgba(10, 19, 31, 1)" stroke-width="1.5"></path><path d="M500.46 682.13L646.33 523.57" stroke="rgba(10, 19, 31, 1)" stroke-width="1.5"></path><path d="M500.46 682.13L354.11 515.99" stroke="rgba(10, 19, 31, 1)" stroke-width="1.5"></path><path d="M500.46 682.13L243.62 679.12" stroke="rgba(10, 19, 31, 1)" stroke-width="1.5"></path><path d="M668.94 253.34L668.94 253.34" stroke="rgba(10, 19, 31, 1)" stroke-width="1.5"></path><path d="M668.94 253.34L694.66 360.57" stroke="rgba(10, 19, 31, 1)" stroke-width="1.5"></path><path d="M694.66 360.57L694.66 360.57" stroke="rgba(10, 19, 31, 1)" stroke-width="1.5"></path><path d="M694.66 360.57L836.05 403.39" stroke="rgba(10, 19, 31, 1)" stroke-width="1.5"></path><path d="M694.66 360.57L646.33 523.57" stroke="rgba(10, 19, 31, 1)" stroke-width="1.5"></path><path d="M694.66 360.57L487.93 394.13" stroke="rgba(10, 19, 31, 1)" stroke-width="1.5"></path><path d="M694.66 360.57L789.45 557" stroke="rgba(10, 19, 31, 1)" stroke-width="1.5"></path><path d="M694.66 360.57L506.49 527.85" stroke="rgba(10, 19, 31, 1)" stroke-width="1.5"></path><path d="M646.33 523.57L646.33 523.57" stroke="rgba(10, 19, 31, 1)" stroke-width="1.5"></path><path d="M646.33 523.57L789.45 557" stroke="rgba(10, 19, 31, 1)" stroke-width="1.5"></path><path d="M709.52 711.38L709.52 711.38" stroke="rgba(10, 19, 31, 1)" stroke-width="1.5"></path><path d="M709.52 711.38L800.62 678.91" stroke="rgba(10, 19, 31, 1)" stroke-width="1.5"></path><path d="M709.52 711.38L789.45 557" stroke="rgba(10, 19, 31, 1)" stroke-width="1.5"></path><path d="M709.52 711.38L646.33 523.57" stroke="rgba(10, 19, 31, 1)" stroke-width="1.5"></path><path d="M836.05 403.39L836.05 403.39" stroke="rgba(10, 19, 31, 1)" stroke-width="1.5"></path><path d="M836.05 403.39L789.45 557" stroke="rgba(10, 19, 31, 1)" stroke-width="1.5"></path><path d="M836.05 403.39L958.08 541.4" stroke="rgba(10, 19, 31, 1)" stroke-width="1.5"></path><path d="M836.05 403.39L646.33 523.57" stroke="rgba(10, 19, 31, 1)" stroke-width="1.5"></path><path d="M836.05 403.39L668.94 253.34" stroke="rgba(10, 19, 31, 1)" stroke-width="1.5"></path><path d="M836.05 403.39L975.72 211.44" stroke="rgba(10, 19, 31, 1)" stroke-width="1.5"></path><path d="M789.45 557L789.45 557" stroke="rgba(10, 19, 31, 1)" stroke-width="1.5"></path><path d="M789.45 557L800.62 678.91" stroke="rgba(10, 19, 31, 1)" stroke-width="1.5"></path><path d="M800.62 678.91L800.62 678.91" stroke="rgba(10, 19, 31, 1)" stroke-width="1.5"></path><path d="M800.62 678.91L950.09 684.98" stroke="rgba(10, 19, 31, 1)" stroke-width="1.5"></path><path d="M800.62 678.91L958.08 541.4" stroke="rgba(10, 19, 31, 1)" stroke-width="1.5"></path><path d="M800.62 678.91L646.33 523.57" stroke="rgba(10, 19, 31, 1)" stroke-width="1.5"></path><path d="M955.96 -105.42L955.96 -105.42" stroke="rgba(10, 19, 31, 1)" stroke-width="1.5"></path><path d="M955.96 -105.42L1096.22 -72.67" stroke="rgba(10, 19, 31, 1)" stroke-width="1.5"></path><path d="M955.96 -105.42L974.21 43.46" stroke="rgba(10, 19, 31, 1)" stroke-width="1.5"></path><path d="M955.96 -105.42L1126.82 40.64" stroke="rgba(10, 19, 31, 1)" stroke-width="1.5"></path><path d="M955.96 -105.42L975.72 211.44" stroke="rgba(10, 19, 31, 1)" stroke-width="1.5"></path><path d="M955.96 -105.42L1299.87 -66.33" stroke="rgba(10, 19, 31, 1)" stroke-width="1.5"></path><path d="M974.21 43.46L974.21 43.46" stroke="rgba(10, 19, 31, 1)" stroke-width="1.5"></path><path d="M974.21 43.46L1126.82 40.64" stroke="rgba(10, 19, 31, 1)" stroke-width="1.5"></path><path d="M974.21 43.46L975.72 211.44" stroke="rgba(10, 19, 31, 1)" stroke-width="1.5"></path><path d="M974.21 43.46L1096.22 -72.67" stroke="rgba(10, 19, 31, 1)" stroke-width="1.5"></path><path d="M975.72 211.44L975.72 211.44" stroke="rgba(10, 19, 31, 1)" stroke-width="1.5"></path><path d="M975.72 211.44L1126.3 225.54" stroke="rgba(10, 19, 31, 1)" stroke-width="1.5"></path><path d="M975.72 211.44L1126.82 40.64" stroke="rgba(10, 19, 31, 1)" stroke-width="1.5"></path><path d="M975.72 211.44L1158.6 363.09" stroke="rgba(10, 19, 31, 1)" stroke-width="1.5"></path><path d="M975.72 211.44L1247.84 90.62" stroke="rgba(10, 19, 31, 1)" stroke-width="1.5"></path><path d="M958.08 541.4L958.08 541.4" stroke="rgba(10, 19, 31, 1)" stroke-width="1.5"></path><path d="M958.08 541.4L950.09 684.98" stroke="rgba(10, 19, 31, 1)" stroke-width="1.5"></path><path d="M958.08 541.4L789.45 557" stroke="rgba(10, 19, 31, 1)" stroke-width="1.5"></path><path d="M958.08 541.4L1162.39 492.82" stroke="rgba(10, 19, 31, 1)" stroke-width="1.5"></path><path d="M958.08 541.4L1141.77 695.77" stroke="rgba(10, 19, 31, 1)" stroke-width="1.5"></path><path d="M950.09 684.98L950.09 684.98" stroke="rgba(10, 19, 31, 1)" stroke-width="1.5"></path><path d="M1096.22 -72.67L1096.22 -72.67" stroke="rgba(10, 19, 31, 1)" stroke-width="1.5"></path><path d="M1096.22 -72.67L1126.82 40.64" stroke="rgba(10, 19, 31, 1)" stroke-width="1.5"></path><path d="M1096.22 -72.67L1299.87 -66.33" stroke="rgba(10, 19, 31, 1)" stroke-width="1.5"></path><path d="M1126.82 40.64L1126.82 40.64" stroke="rgba(10, 19, 31, 1)" stroke-width="1.5"></path><path d="M1126.82 40.64L1247.84 90.62" stroke="rgba(10, 19, 31, 1)" stroke-width="1.5"></path><path d="M1126.82 40.64L1126.3 225.54" stroke="rgba(10, 19, 31, 1)" stroke-width="1.5"></path><path d="M1126.82 40.64L1299.87 -66.33" stroke="rgba(10, 19, 31, 1)" stroke-width="1.5"></path><path d="M1126.3 225.54L1126.3 225.54" stroke="rgba(10, 19, 31, 1)" stroke-width="1.5"></path><path d="M1126.3 225.54L1158.6 363.09" stroke="rgba(10, 19, 31, 1)" stroke-width="1.5"></path><path d="M1126.3 225.54L1305.71 214.83" stroke="rgba(10, 19, 31, 1)" stroke-width="1.5"></path><path d="M1126.3 225.54L1253.61 353.37" stroke="rgba(10, 19, 31, 1)" stroke-width="1.5"></path><path d="M1158.6 363.09L1158.6 363.09" stroke="rgba(10, 19, 31, 1)" stroke-width="1.5"></path><path d="M1158.6 363.09L1253.61 353.37" stroke="rgba(10, 19, 31, 1)" stroke-width="1.5"></path><path d="M1158.6 363.09L1162.39 492.82" stroke="rgba(10, 19, 31, 1)" stroke-width="1.5"></path><path d="M1162.39 492.82L1162.39 492.82" stroke="rgba(10, 19, 31, 1)" stroke-width="1.5"></path><path d="M1162.39 492.82L1263.06 541.56" stroke="rgba(10, 19, 31, 1)" stroke-width="1.5"></path><path d="M1162.39 492.82L1253.61 353.37" stroke="rgba(10, 19, 31, 1)" stroke-width="1.5"></path><path d="M1162.39 492.82L1141.77 695.77" stroke="rgba(10, 19, 31, 1)" stroke-width="1.5"></path><path d="M1141.77 695.77L1141.77 695.77" stroke="rgba(10, 19, 31, 1)" stroke-width="1.5"></path><path d="M1141.77 695.77L1242.82 692.63" stroke="rgba(10, 19, 31, 1)" stroke-width="1.5"></path><path d="M1141.77 695.77L950.09 684.98" stroke="rgba(10, 19, 31, 1)" stroke-width="1.5"></path><path d="M1141.77 695.77L1263.06 541.56" stroke="rgba(10, 19, 31, 1)" stroke-width="1.5"></path><path d="M1299.87 -66.33L1299.87 -66.33" stroke="rgba(10, 19, 31, 1)" stroke-width="1.5"></path><path d="M1299.87 -66.33L1405.92 -66.85" stroke="rgba(10, 19, 31, 1)" stroke-width="1.5"></path><path d="M1299.87 -66.33L1247.84 90.62" stroke="rgba(10, 19, 31, 1)" stroke-width="1.5"></path><path d="M1247.84 90.62L1247.84 90.62" stroke="rgba(10, 19, 31, 1)" stroke-width="1.5"></path><path d="M1247.84 90.62L1305.71 214.83" stroke="rgba(10, 19, 31, 1)" stroke-width="1.5"></path><path d="M1247.84 90.62L1413.42 103.59" stroke="rgba(10, 19, 31, 1)" stroke-width="1.5"></path><path d="M1305.71 214.83L1305.71 214.83" stroke="rgba(10, 19, 31, 1)" stroke-width="1.5"></path><path d="M1305.71 214.83L1409.63 256.34" stroke="rgba(10, 19, 31, 1)" stroke-width="1.5"></path><path d="M1253.61 353.37L1253.61 353.37" stroke="rgba(10, 19, 31, 1)" stroke-width="1.5"></path><path d="M1253.61 353.37L1305.71 214.83" stroke="rgba(10, 19, 31, 1)" stroke-width="1.5"></path><path d="M1263.06 541.56L1263.06 541.56" stroke="rgba(10, 19, 31, 1)" stroke-width="1.5"></path><path d="M1263.06 541.56L1396.01 545.25" stroke="rgba(10, 19, 31, 1)" stroke-width="1.5"></path><path d="M1263.06 541.56L1242.82 692.63" stroke="rgba(10, 19, 31, 1)" stroke-width="1.5"></path><path d="M1263.06 541.56L1253.61 353.37" stroke="rgba(10, 19, 31, 1)" stroke-width="1.5"></path><path d="M1242.82 692.63L1242.82 692.63" stroke="rgba(10, 19, 31, 1)" stroke-width="1.5"></path><path d="M1242.82 692.63L1445.92 702.74" stroke="rgba(10, 19, 31, 1)" stroke-width="1.5"></path><path d="M1242.82 692.63L1396.01 545.25" stroke="rgba(10, 19, 31, 1)" stroke-width="1.5"></path><path d="M1242.82 692.63L1162.39 492.82" stroke="rgba(10, 19, 31, 1)" stroke-width="1.5"></path><path d="M1242.82 692.63L950.09 684.98" stroke="rgba(10, 19, 31, 1)" stroke-width="1.5"></path><path d="M1405.92 -66.85L1405.92 -66.85" stroke="rgba(10, 19, 31, 1)" stroke-width="1.5"></path><path d="M1413.42 103.59L1413.42 103.59" stroke="rgba(10, 19, 31, 1)" stroke-width="1.5"></path><path d="M1413.42 103.59L1409.63 256.34" stroke="rgba(10, 19, 31, 1)" stroke-width="1.5"></path><path d="M1413.42 103.59L1305.71 214.83" stroke="rgba(10, 19, 31, 1)" stroke-width="1.5"></path><path d="M1409.63 256.34L1409.63 256.34" stroke="rgba(10, 19, 31, 1)" stroke-width="1.5"></path><path d="M1409.63 256.34L1400.59 380.92" stroke="rgba(10, 19, 31, 1)" stroke-width="1.5"></path><path d="M1409.63 256.34L1573.15 245.36" stroke="rgba(10, 19, 31, 1)" stroke-width="1.5"></path><path d="M1409.63 256.34L1253.61 353.37" stroke="rgba(10, 19, 31, 1)" stroke-width="1.5"></path><path d="M1400.59 380.92L1400.59 380.92" stroke="rgba(10, 19, 31, 1)" stroke-width="1.5"></path><path d="M1400.59 380.92L1253.61 353.37" stroke="rgba(10, 19, 31, 1)" stroke-width="1.5"></path><path d="M1400.59 380.92L1396.01 545.25" stroke="rgba(10, 19, 31, 1)" stroke-width="1.5"></path><path d="M1400.59 380.92L1585.5 405.24" stroke="rgba(10, 19, 31, 1)" stroke-width="1.5"></path><path d="M1400.59 380.92L1305.71 214.83" stroke="rgba(10, 19, 31, 1)" stroke-width="1.5"></path><path d="M1400.59 380.92L1263.06 541.56" stroke="rgba(10, 19, 31, 1)" stroke-width="1.5"></path><path d="M1396.01 545.25L1396.01 545.25" stroke="rgba(10, 19, 31, 1)" stroke-width="1.5"></path><path d="M1396.01 545.25L1445.92 702.74" stroke="rgba(10, 19, 31, 1)" stroke-width="1.5"></path><path d="M1396.01 545.25L1565.58 547.87" stroke="rgba(10, 19, 31, 1)" stroke-width="1.5"></path><path d="M1396.01 545.25L1585.5 405.24" stroke="rgba(10, 19, 31, 1)" stroke-width="1.5"></path><path d="M1445.92 702.74L1445.92 702.74" stroke="rgba(10, 19, 31, 1)" stroke-width="1.5"></path><path d="M1445.92 702.74L1611.92 674.91" stroke="rgba(10, 19, 31, 1)" stroke-width="1.5"></path><path d="M1562.68 -106.58L1562.68 -106.58" stroke="rgba(10, 19, 31, 1)" stroke-width="1.5"></path><path d="M1562.68 -106.58L1405.92 -66.85" stroke="rgba(10, 19, 31, 1)" stroke-width="1.5"></path><path d="M1562.68 -106.58L1610.34 61.41" stroke="rgba(10, 19, 31, 1)" stroke-width="1.5"></path><path d="M1562.68 -106.58L1413.42 103.59" stroke="rgba(10, 19, 31, 1)" stroke-width="1.5"></path><path d="M1562.68 -106.58L1299.87 -66.33" stroke="rgba(10, 19, 31, 1)" stroke-width="1.5"></path><path d="M1562.68 -106.58L1573.15 245.36" stroke="rgba(10, 19, 31, 1)" stroke-width="1.5"></path><path d="M1610.34 61.41L1610.34 61.41" stroke="rgba(10, 19, 31, 1)" stroke-width="1.5"></path><path d="M1610.34 61.41L1573.15 245.36" stroke="rgba(10, 19, 31, 1)" stroke-width="1.5"></path><path d="M1610.34 61.41L1413.42 103.59" stroke="rgba(10, 19, 31, 1)" stroke-width="1.5"></path><path d="M1610.34 61.41L1405.92 -66.85" stroke="rgba(10, 19, 31, 1)" stroke-width="1.5"></path><path d="M1573.15 245.36L1573.15 245.36" stroke="rgba(10, 19, 31, 1)" stroke-width="1.5"></path><path d="M1573.15 245.36L1585.5 405.24" stroke="rgba(10, 19, 31, 1)" stroke-width="1.5"></path><path d="M1585.5 405.24L1585.5 405.24" stroke="rgba(10, 19, 31, 1)" stroke-width="1.5"></path><path d="M1585.5 405.24L1565.58 547.87" stroke="rgba(10, 19, 31, 1)" stroke-width="1.5"></path><path d="M1585.5 405.24L1409.63 256.34" stroke="rgba(10, 19, 31, 1)" stroke-width="1.5"></path><path d="M1585.5 405.24L1611.92 674.91" stroke="rgba(10, 19, 31, 1)" stroke-width="1.5"></path><path d="M1565.58 547.87L1565.58 547.87" stroke="rgba(10, 19, 31, 1)" stroke-width="1.5"></path><path d="M1565.58 547.87L1611.92 674.91" stroke="rgba(10, 19, 31, 1)" stroke-width="1.5"></path><path d="M1565.58 547.87L1445.92 702.74" stroke="rgba(10, 19, 31, 1)" stroke-width="1.5"></path><path d="M1565.58 547.87L1400.59 380.92" stroke="rgba(10, 19, 31, 1)" stroke-width="1.5"></path><path d="M1611.92 674.91L1611.92 674.91" stroke="rgba(10, 19, 31, 1)" stroke-width="1.5"></path><path d="M1611.92 674.91L1396.01 545.25" stroke="rgba(10, 19, 31, 1)" stroke-width="1.5"></path><path d="M1611.92 674.91L1400.59 380.92" stroke="rgba(10, 19, 31, 1)" stroke-width="1.5"></path><path d="M1611.92 674.91L1242.82 692.63" stroke="rgba(10, 19, 31, 1)" stroke-width="1.5"></path><circle r="5" cx="-101.64" cy="394.48" fill="rgba(10, 19, 31, 1)"></circle><circle r="5" cx="-112.19" cy="525.03" fill="rgba(10, 19, 31, 1)"></circle><circle r="5" cx="-62.17" cy="677.28" fill="rgba(10, 19, 31, 1)"></circle><circle r="5" cx="108.3" cy="346.46" fill="rgba(10, 19, 31, 1)"></circle><circle r="5" cx="73.79" cy="512.34" fill="rgba(10, 19, 31, 1)"></circle><circle r="5" cx="105.17" cy="705.99" fill="rgba(10, 19, 31, 1)"></circle><circle r="5" cx="233.89" cy="368.58" fill="rgba(10, 19, 31, 1)"></circle><circle r="5" cx="229.33" cy="489.46" fill="rgba(10, 19, 31, 1)"></circle><circle r="5" cx="243.62" cy="679.12" fill="rgba(10, 19, 31, 1)"></circle><circle r="5" cx="373.99" cy="342.84" fill="rgba(10, 19, 31, 1)"></circle><circle r="5" cx="354.11" cy="515.99" fill="rgba(10, 19, 31, 1)"></circle><circle r="5" cx="384.52" cy="688.56" fill="rgba(10, 19, 31, 1)"></circle><circle r="5" cx="487.93" cy="394.13" fill="rgba(10, 19, 31, 1)"></circle><circle r="5" cx="506.49" cy="527.85" fill="rgba(10, 19, 31, 1)"></circle><circle r="5" cx="500.46" cy="682.13" fill="rgba(10, 19, 31, 1)"></circle><circle r="5" cx="668.94" cy="253.34" fill="rgba(10, 19, 31, 1)"></circle><circle r="5" cx="694.66" cy="360.57" fill="rgba(10, 19, 31, 1)"></circle><circle r="5" cx="646.33" cy="523.57" fill="rgba(10, 19, 31, 1)"></circle><circle r="5" cx="709.52" cy="711.38" fill="rgba(10, 19, 31, 1)"></circle><circle r="5" cx="836.05" cy="403.39" fill="rgba(10, 19, 31, 1)"></circle><circle r="5" cx="789.45" cy="557" fill="rgba(10, 19, 31, 1)"></circle><circle r="5" cx="800.62" cy="678.91" fill="rgba(10, 19, 31, 1)"></circle><circle r="5" cx="955.96" cy="-105.42" fill="rgba(10, 19, 31, 1)"></circle><circle r="5" cx="974.21" cy="43.46" fill="rgba(10, 19, 31, 1)"></circle><circle r="5" cx="975.72" cy="211.44" fill="rgba(10, 19, 31, 1)"></circle><circle r="5" cx="958.08" cy="541.4" fill="rgba(10, 19, 31, 1)"></circle><circle r="5" cx="950.09" cy="684.98" fill="rgba(10, 19, 31, 1)"></circle><circle r="5" cx="1096.22" cy="-72.67" fill="rgba(10, 19, 31, 1)"></circle><circle r="5" cx="1126.82" cy="40.64" fill="rgba(10, 19, 31, 1)"></circle><circle r="5" cx="1126.3" cy="225.54" fill="rgba(10, 19, 31, 1)"></circle><circle r="5" cx="1158.6" cy="363.09" fill="rgba(10, 19, 31, 1)"></circle><circle r="5" cx="1162.39" cy="492.82" fill="rgba(10, 19, 31, 1)"></circle><circle r="5" cx="1141.77" cy="695.77" fill="rgba(10, 19, 31, 1)"></circle><circle r="5" cx="1299.87" cy="-66.33" fill="rgba(10, 19, 31, 1)"></circle><circle r="5" cx="1247.84" cy="90.62" fill="rgba(10, 19, 31, 1)"></circle><circle r="5" cx="1305.71" cy="214.83" fill="rgba(10, 19, 31, 1)"></circle><circle r="5" cx="1253.61" cy="353.37" fill="rgba(10, 19, 31, 1)"></circle><circle r="5" cx="1263.06" cy="541.56" fill="rgba(10, 19, 31, 1)"></circle><circle r="5" cx="1242.82" cy="692.63" fill="rgba(10, 19, 31, 1)"></circle><circle r="5" cx="1405.92" cy="-66.85" fill="rgba(10, 19, 31, 1)"></circle><circle r="5" cx="1413.42" cy="103.59" fill="rgba(10, 19, 31, 1)"></circle><circle r="5" cx="1409.63" cy="256.34" fill="rgba(10, 19, 31, 1)"></circle><circle r="5" cx="1400.59" cy="380.92" fill="rgba(10, 19, 31, 1)"></circle><circle r="5" cx="1396.01" cy="545.25" fill="rgba(10, 19, 31, 1)"></circle><circle r="5" cx="1445.92" cy="702.74" fill="rgba(10, 19, 31, 1)"></circle><circle r="5" cx="1562.68" cy="-106.58" fill="rgba(10, 19, 31, 1)"></circle><circle r="5" cx="1610.34" cy="61.41" fill="rgba(10, 19, 31, 1)"></circle><circle r="5" cx="1573.15" cy="245.36" fill="rgba(10, 19, 31, 1)"></circle><circle r="5" cx="1585.5" cy="405.24" fill="rgba(10, 19, 31, 1)"></circle><circle r="5" cx="1565.58" cy="547.87" fill="rgba(10, 19, 31, 1)"></circle><circle r="5" cx="1611.92" cy="674.91" fill="rgba(10, 19, 31, 1)"></circle><path d="M365.67 650.67L365.67 650.67" stroke="hsl(144, 87.4%, 52.5%)" stroke-width="1.5"></path><path d="M365.67 650.67L239.14 663.57" stroke="hsl(144, 87.4%, 52.5%)" stroke-width="1.5"></path><path d="M365.67 650.67L359.12 498.22" stroke="hsl(144, 87.4%, 52.5%)" stroke-width="1.5"></path><path d="M365.67 650.67L253.08 521.77" stroke="hsl(144, 87.4%, 52.5%)" stroke-width="1.5"></path><path d="M1283.3 544.51L1283.3 544.51" stroke="hsl(144, 87.4%, 52.5%)" stroke-width="1.5"></path><path d="M1283.3 544.51L1161.5 503.22" stroke="hsl(144, 87.4%, 52.5%)" stroke-width="1.5"></path><path d="M1283.3 544.51L1260.18 687.92" stroke="hsl(144, 87.4%, 52.5%)" stroke-width="1.5"></path><path d="M1446.54 60.67L1446.54 60.67" stroke="hsl(144, 87.4%, 52.5%)" stroke-width="1.5"></path><path d="M1446.54 60.67L1553.09 103.27" stroke="hsl(144, 87.4%, 52.5%)" stroke-width="1.5"></path><path d="M1446.54 60.67L1391.15 203.5" stroke="hsl(144, 87.4%, 52.5%)" stroke-width="1.5"></path><path d="M1446.54 60.67L1538.65 201.91" stroke="hsl(144, 87.4%, 52.5%)" stroke-width="1.5"></path><path d="M1446.54 60.67L1584.9 -57.55" stroke="hsl(144, 87.4%, 52.5%)" stroke-width="1.5"></path><path d="M1391.15 203.5L1391.15 203.5" stroke="hsl(144, 87.4%, 52.5%)" stroke-width="1.5"></path><path d="M1391.15 203.5L1246.37 194.97" stroke="hsl(144, 87.4%, 52.5%)" stroke-width="1.5"></path><path d="M1391.15 203.5L1538.65 201.91" stroke="hsl(144, 87.4%, 52.5%)" stroke-width="1.5"></path><path d="M1391.15 203.5L1394.92 357.54" stroke="hsl(144, 87.4%, 52.5%)" stroke-width="1.5"></path><path d="M1391.15 203.5L1553.09 103.27" stroke="hsl(144, 87.4%, 52.5%)" stroke-width="1.5"></path><path d="M1605.58 349.02L1605.58 349.02" stroke="hsl(144, 87.4%, 52.5%)" stroke-width="1.5"></path><path d="M1605.58 349.02L1538.65 201.91" stroke="hsl(144, 87.4%, 52.5%)" stroke-width="1.5"></path><path d="M1605.58 349.02L1550.14 513.23" stroke="hsl(144, 87.4%, 52.5%)" stroke-width="1.5"></path><path d="M1605.58 349.02L1394.92 357.54" stroke="hsl(144, 87.4%, 52.5%)" stroke-width="1.5"></path><path d="M-68.46 558.28L-68.46 558.28" stroke="hsl(144, 87.4%, 52.5%)" stroke-width="1.5"></path><path d="M-68.46 558.28L-100.79 646.44" stroke="hsl(144, 87.4%, 52.5%)" stroke-width="1.5"></path><path d="M-68.46 558.28L88.93 487.6" stroke="hsl(144, 87.4%, 52.5%)" stroke-width="1.5"></path><path d="M-68.46 558.28L60.92 679.59" stroke="hsl(144, 87.4%, 52.5%)" stroke-width="1.5"></path><path d="M-68.46 558.28L253.08 521.77" stroke="hsl(144, 87.4%, 52.5%)" stroke-width="1.5"></path><path d="M-68.46 558.28L239.14 663.57" stroke="hsl(144, 87.4%, 52.5%)" stroke-width="1.5"></path><path d="M-68.46 558.28L359.12 498.22" stroke="hsl(144, 87.4%, 52.5%)" stroke-width="1.5"></path><path d="M-100.79 646.44L-100.79 646.44" stroke="hsl(144, 87.4%, 52.5%)" stroke-width="1.5"></path><path d="M-100.79 646.44L60.92 679.59" stroke="hsl(144, 87.4%, 52.5%)" stroke-width="1.5"></path><path d="M-100.79 646.44L88.93 487.6" stroke="hsl(144, 87.4%, 52.5%)" stroke-width="1.5"></path><path d="M88.93 487.6L88.93 487.6" stroke="hsl(144, 87.4%, 52.5%)" stroke-width="1.5"></path><path d="M88.93 487.6L253.08 521.77" stroke="hsl(144, 87.4%, 52.5%)" stroke-width="1.5"></path><path d="M88.93 487.6L60.92 679.59" stroke="hsl(144, 87.4%, 52.5%)" stroke-width="1.5"></path><path d="M88.93 487.6L239.14 663.57" stroke="hsl(144, 87.4%, 52.5%)" stroke-width="1.5"></path><path d="M60.92 679.59L60.92 679.59" stroke="hsl(144, 87.4%, 52.5%)" stroke-width="1.5"></path><path d="M253.08 521.77L253.08 521.77" stroke="hsl(144, 87.4%, 52.5%)" stroke-width="1.5"></path><path d="M253.08 521.77L359.12 498.22" stroke="hsl(144, 87.4%, 52.5%)" stroke-width="1.5"></path><path d="M253.08 521.77L239.14 663.57" stroke="hsl(144, 87.4%, 52.5%)" stroke-width="1.5"></path><path d="M239.14 663.57L239.14 663.57" stroke="hsl(144, 87.4%, 52.5%)" stroke-width="1.5"></path><path d="M239.14 663.57L60.92 679.59" stroke="hsl(144, 87.4%, 52.5%)" stroke-width="1.5"></path><path d="M359.12 498.22L359.12 498.22" stroke="hsl(144, 87.4%, 52.5%)" stroke-width="1.5"></path><path d="M359.12 498.22L555.59 521.89" stroke="hsl(144, 87.4%, 52.5%)" stroke-width="1.5"></path><path d="M359.12 498.22L239.14 663.57" stroke="hsl(144, 87.4%, 52.5%)" stroke-width="1.5"></path><path d="M555.59 521.89L555.59 521.89" stroke="hsl(144, 87.4%, 52.5%)" stroke-width="1.5"></path><path d="M555.59 521.89L658.97 548.68" stroke="hsl(144, 87.4%, 52.5%)" stroke-width="1.5"></path><path d="M555.59 521.89L555.67 657.85" stroke="hsl(144, 87.4%, 52.5%)" stroke-width="1.5"></path><path d="M555.59 521.89L666.46 387.79" stroke="hsl(144, 87.4%, 52.5%)" stroke-width="1.5"></path><path d="M555.59 521.89L686.96 651.73" stroke="hsl(144, 87.4%, 52.5%)" stroke-width="1.5"></path><path d="M555.67 657.85L555.67 657.85" stroke="hsl(144, 87.4%, 52.5%)" stroke-width="1.5"></path><path d="M555.67 657.85L686.96 651.73" stroke="hsl(144, 87.4%, 52.5%)" stroke-width="1.5"></path><path d="M555.67 657.85L658.97 548.68" stroke="hsl(144, 87.4%, 52.5%)" stroke-width="1.5"></path><path d="M555.67 657.85L365.67 650.67" stroke="hsl(144, 87.4%, 52.5%)" stroke-width="1.5"></path><path d="M555.67 657.85L787.84 689.85" stroke="hsl(144, 87.4%, 52.5%)" stroke-width="1.5"></path><path d="M666.46 387.79L666.46 387.79" stroke="hsl(144, 87.4%, 52.5%)" stroke-width="1.5"></path><path d="M666.46 387.79L658.97 548.68" stroke="hsl(144, 87.4%, 52.5%)" stroke-width="1.5"></path><path d="M666.46 387.79L808.12 527.93" stroke="hsl(144, 87.4%, 52.5%)" stroke-width="1.5"></path><path d="M658.97 548.68L658.97 548.68" stroke="hsl(144, 87.4%, 52.5%)" stroke-width="1.5"></path><path d="M658.97 548.68L686.96 651.73" stroke="hsl(144, 87.4%, 52.5%)" stroke-width="1.5"></path><path d="M658.97 548.68L808.12 527.93" stroke="hsl(144, 87.4%, 52.5%)" stroke-width="1.5"></path><path d="M658.97 548.68L787.84 689.85" stroke="hsl(144, 87.4%, 52.5%)" stroke-width="1.5"></path><path d="M686.96 651.73L686.96 651.73" stroke="hsl(144, 87.4%, 52.5%)" stroke-width="1.5"></path><path d="M686.96 651.73L787.84 689.85" stroke="hsl(144, 87.4%, 52.5%)" stroke-width="1.5"></path><path d="M808.12 527.93L808.12 527.93" stroke="hsl(144, 87.4%, 52.5%)" stroke-width="1.5"></path><path d="M808.12 527.93L787.84 689.85" stroke="hsl(144, 87.4%, 52.5%)" stroke-width="1.5"></path><path d="M808.12 527.93L686.96 651.73" stroke="hsl(144, 87.4%, 52.5%)" stroke-width="1.5"></path><path d="M808.12 527.93L990.67 519.33" stroke="hsl(144, 87.4%, 52.5%)" stroke-width="1.5"></path><path d="M808.12 527.93L963.23 343.74" stroke="hsl(144, 87.4%, 52.5%)" stroke-width="1.5"></path><path d="M787.84 689.85L787.84 689.85" stroke="hsl(144, 87.4%, 52.5%)" stroke-width="1.5"></path><path d="M963.23 343.74L963.23 343.74" stroke="hsl(144, 87.4%, 52.5%)" stroke-width="1.5"></path><path d="M963.23 343.74L1087.69 365.04" stroke="hsl(144, 87.4%, 52.5%)" stroke-width="1.5"></path><path d="M963.23 343.74L990.67 519.33" stroke="hsl(144, 87.4%, 52.5%)" stroke-width="1.5"></path><path d="M963.23 343.74L1159.35 239.83" stroke="hsl(144, 87.4%, 52.5%)" stroke-width="1.5"></path><path d="M990.67 519.33L990.67 519.33" stroke="hsl(144, 87.4%, 52.5%)" stroke-width="1.5"></path><path d="M990.67 519.33L1161.5 503.22" stroke="hsl(144, 87.4%, 52.5%)" stroke-width="1.5"></path><path d="M990.67 519.33L1087.69 365.04" stroke="hsl(144, 87.4%, 52.5%)" stroke-width="1.5"></path><path d="M1134.64 78.55L1134.64 78.55" stroke="hsl(144, 87.4%, 52.5%)" stroke-width="1.5"></path><path d="M1134.64 78.55L1239.56 56.81" stroke="hsl(144, 87.4%, 52.5%)" stroke-width="1.5"></path><path d="M1134.64 78.55L1246.37 194.97" stroke="hsl(144, 87.4%, 52.5%)" stroke-width="1.5"></path><path d="M1159.35 239.83L1159.35 239.83" stroke="hsl(144, 87.4%, 52.5%)" stroke-width="1.5"></path><path d="M1159.35 239.83L1246.37 194.97" stroke="hsl(144, 87.4%, 52.5%)" stroke-width="1.5"></path><path d="M1159.35 239.83L1087.69 365.04" stroke="hsl(144, 87.4%, 52.5%)" stroke-width="1.5"></path><path d="M1087.69 365.04L1087.69 365.04" stroke="hsl(144, 87.4%, 52.5%)" stroke-width="1.5"></path><path d="M1087.69 365.04L1161.5 503.22" stroke="hsl(144, 87.4%, 52.5%)" stroke-width="1.5"></path><path d="M1087.69 365.04L1246.37 194.97" stroke="hsl(144, 87.4%, 52.5%)" stroke-width="1.5"></path><path d="M1161.5 503.22L1161.5 503.22" stroke="hsl(144, 87.4%, 52.5%)" stroke-width="1.5"></path><path d="M1161.5 503.22L1114.06 693.16" stroke="hsl(144, 87.4%, 52.5%)" stroke-width="1.5"></path><path d="M1114.06 693.16L1114.06 693.16" stroke="hsl(144, 87.4%, 52.5%)" stroke-width="1.5"></path><path d="M1114.06 693.16L1260.18 687.92" stroke="hsl(144, 87.4%, 52.5%)" stroke-width="1.5"></path><path d="M1306.08 -59.93L1306.08 -59.93" stroke="hsl(144, 87.4%, 52.5%)" stroke-width="1.5"></path><path d="M1306.08 -59.93L1239.56 56.81" stroke="hsl(144, 87.4%, 52.5%)" stroke-width="1.5"></path><path d="M1306.08 -59.93L1446.54 60.67" stroke="hsl(144, 87.4%, 52.5%)" stroke-width="1.5"></path><path d="M1306.08 -59.93L1134.64 78.55" stroke="hsl(144, 87.4%, 52.5%)" stroke-width="1.5"></path><path d="M1306.08 -59.93L1246.37 194.97" stroke="hsl(144, 87.4%, 52.5%)" stroke-width="1.5"></path><path d="M1239.56 56.81L1239.56 56.81" stroke="hsl(144, 87.4%, 52.5%)" stroke-width="1.5"></path><path d="M1239.56 56.81L1246.37 194.97" stroke="hsl(144, 87.4%, 52.5%)" stroke-width="1.5"></path><path d="M1239.56 56.81L1159.35 239.83" stroke="hsl(144, 87.4%, 52.5%)" stroke-width="1.5"></path><path d="M1239.56 56.81L1446.54 60.67" stroke="hsl(144, 87.4%, 52.5%)" stroke-width="1.5"></path><path d="M1246.37 194.97L1246.37 194.97" stroke="hsl(144, 87.4%, 52.5%)" stroke-width="1.5"></path><path d="M1260.18 687.92L1260.18 687.92" stroke="hsl(144, 87.4%, 52.5%)" stroke-width="1.5"></path><path d="M1260.18 687.92L1403.9 652.56" stroke="hsl(144, 87.4%, 52.5%)" stroke-width="1.5"></path><path d="M1260.18 687.92L1161.5 503.22" stroke="hsl(144, 87.4%, 52.5%)" stroke-width="1.5"></path><path d="M1260.18 687.92L990.67 519.33" stroke="hsl(144, 87.4%, 52.5%)" stroke-width="1.5"></path><path d="M1394.92 357.54L1394.92 357.54" stroke="hsl(144, 87.4%, 52.5%)" stroke-width="1.5"></path><path d="M1403.9 652.56L1403.9 652.56" stroke="hsl(144, 87.4%, 52.5%)" stroke-width="1.5"></path><path d="M1403.9 652.56L1283.3 544.51" stroke="hsl(144, 87.4%, 52.5%)" stroke-width="1.5"></path><path d="M1403.9 652.56L1593.28 705.9" stroke="hsl(144, 87.4%, 52.5%)" stroke-width="1.5"></path><path d="M1584.9 -57.55L1584.9 -57.55" stroke="hsl(144, 87.4%, 52.5%)" stroke-width="1.5"></path><path d="M1584.9 -57.55L1553.09 103.27" stroke="hsl(144, 87.4%, 52.5%)" stroke-width="1.5"></path><path d="M1553.09 103.27L1553.09 103.27" stroke="hsl(144, 87.4%, 52.5%)" stroke-width="1.5"></path><path d="M1553.09 103.27L1538.65 201.91" stroke="hsl(144, 87.4%, 52.5%)" stroke-width="1.5"></path><path d="M1538.65 201.91L1538.65 201.91" stroke="hsl(144, 87.4%, 52.5%)" stroke-width="1.5"></path><path d="M1550.14 513.23L1550.14 513.23" stroke="hsl(144, 87.4%, 52.5%)" stroke-width="1.5"></path><path d="M1550.14 513.23L1593.28 705.9" stroke="hsl(144, 87.4%, 52.5%)" stroke-width="1.5"></path><path d="M1550.14 513.23L1403.9 652.56" stroke="hsl(144, 87.4%, 52.5%)" stroke-width="1.5"></path><path d="M1593.28 705.9L1593.28 705.9" stroke="hsl(144, 87.4%, 52.5%)" stroke-width="1.5"></path><path d="M1593.28 705.9L1260.18 687.92" stroke="hsl(144, 87.4%, 52.5%)" stroke-width="1.5"></path><path d="M1593.28 705.9L1283.3 544.51" stroke="hsl(144, 87.4%, 52.5%)" stroke-width="1.5"></path><path d="M1593.28 705.9L1605.58 349.02" stroke="hsl(144, 87.4%, 52.5%)" stroke-width="1.5"></path><circle r="25" cx="365.67" cy="650.67" fill="url(#SvgjsRadialGradient1007)"></circle><circle r="25" cx="1283.3" cy="544.51" fill="url(#SvgjsRadialGradient1007)"></circle><circle r="25" cx="1446.54" cy="60.67" fill="url(#SvgjsRadialGradient1007)"></circle><circle r="25" cx="1391.15" cy="203.5" fill="url(#SvgjsRadialGradient1007)"></circle><circle r="25" cx="1605.58" cy="349.02" fill="url(#SvgjsRadialGradient1007)"></circle><circle r="5" cx="-68.46" cy="558.28" fill="#86e0aa"></circle><circle r="5" cx="-100.79" cy="646.44" fill="#86e0aa"></circle><circle r="5" cx="88.93" cy="487.6" fill="#86e0aa"></circle><circle r="5" cx="60.92" cy="679.59" fill="#86e0aa"></circle><circle r="5" cx="253.08" cy="521.77" fill="#86e0aa"></circle><circle r="5" cx="239.14" cy="663.57" fill="#86e0aa"></circle><circle r="5" cx="359.12" cy="498.22" fill="#86e0aa"></circle><circle r="5" cx="555.59" cy="521.89" fill="#86e0aa"></circle><circle r="5" cx="555.67" cy="657.85" fill="#86e0aa"></circle><circle r="5" cx="666.46" cy="387.79" fill="#86e0aa"></circle><circle r="5" cx="658.97" cy="548.68" fill="#86e0aa"></circle><circle r="5" cx="686.96" cy="651.73" fill="#86e0aa"></circle><circle r="5" cx="808.12" cy="527.93" fill="#86e0aa"></circle><circle r="5" cx="787.84" cy="689.85" fill="#86e0aa"></circle><circle r="5" cx="963.23" cy="343.74" fill="#86e0aa"></circle><circle r="5" cx="990.67" cy="519.33" fill="#86e0aa"></circle><circle r="5" cx="1134.64" cy="78.55" fill="#86e0aa"></circle><circle r="5" cx="1159.35" cy="239.83" fill="#86e0aa"></circle><circle r="5" cx="1087.69" cy="365.04" fill="#86e0aa"></circle><circle r="5" cx="1161.5" cy="503.22" fill="#86e0aa"></circle><circle r="5" cx="1114.06" cy="693.16" fill="#86e0aa"></circle><circle r="5" cx="1306.08" cy="-59.93" fill="#86e0aa"></circle><circle r="5" cx="1239.56" cy="56.81" fill="#86e0aa"></circle><circle r="5" cx="1246.37" cy="194.97" fill="#86e0aa"></circle><circle r="5" cx="1260.18" cy="687.92" fill="#86e0aa"></circle><circle r="5" cx="1394.92" cy="357.54" fill="#86e0aa"></circle><circle r="5" cx="1403.9" cy="652.56" fill="#86e0aa"></circle><circle r="5" cx="1584.9" cy="-57.55" fill="#86e0aa"></circle><circle r="5" cx="1553.09" cy="103.27" fill="#86e0aa"></circle><circle r="5" cx="1538.65" cy="201.91" fill="#86e0aa"></circle><circle r="5" cx="1550.14" cy="513.23" fill="#86e0aa"></circle><circle r="5" cx="1593.28" cy="705.9" fill="#86e0aa"></circle></g><defs><mask id="SvgjsMask1006"><rect width="1440" height="560" fill="#ffffff"></rect></mask><radialGradient id="SvgjsRadialGradient1007"><stop stop-color="#ffffff" offset="0.1"></stop><stop stop-color="rgba(13, 193, 85, 1)" offset="0.2"></stop><stop stop-color="rgba(13, 193, 85, 0)" offset="1"></stop></radialGradient></defs></svg>