<svg xmlns="http://www.w3.org/2000/svg" version="1.1" xmlns:xlink="http://www.w3.org/1999/xlink" xmlns:svgjs="http://svgjs.com/svgjs" width="1600" height="1440" preserveAspectRatio="none" viewBox="0 0 1600 1440"><g mask="url(&quot;#SvgjsMask6268&quot;)" fill="none"><rect width="1600" height="1440" x="0" y="0" fill="url(#SvgjsLinearGradient6269)"></rect><path d="M1600 0L1215.49 0L1600 252.16z" fill="rgba(255, 255, 255, .1)"></path><path d="M1215.49 0L1600 252.16L1600 325.59000000000003L827.29 0z" fill="rgba(255, 255, 255, .075)"></path><path d="M827.29 0L1600 325.59000000000003L1600 486.44000000000005L784.8299999999999 0z" fill="rgba(255, 255, 255, .05)"></path><path d="M784.8299999999999 0L1600 486.44000000000005L1600 652.24L545.91 0z" fill="rgba(255, 255, 255, .025)"></path><path d="M0 1440L539.86 1440L0 787.22z" fill="rgba(0, 0, 0, .1)"></path><path d="M0 787.22L539.86 1440L876.4000000000001 1440L0 376.85z" fill="rgba(0, 0, 0, .075)"></path><path d="M0 376.8499999999999L876.4000000000001 1440L1066.73 1440L0 346.19999999999993z" fill="rgba(0, 0, 0, .05)"></path><path d="M0 346.1999999999998L1066.73 1440L1208 1440L0 330.8799999999998z" fill="rgba(0, 0, 0, .025)"></path></g><defs><mask id="SvgjsMask6268"><rect width="1600" height="1440" fill="#ffffff"></rect></mask><linearGradient x1="2.5%" y1="-2.78%" x2="97.5%" y2="102.78%" gradientUnits="userSpaceOnUse" id="SvgjsLinearGradient6269"><stop stop-color="rgba(107, 186, 159, 1)" offset="0"></stop><stop stop-color="rgba(42, 73, 119, 1)" offset="1"></stop></linearGradient></defs></svg>