<svg xmlns="http://www.w3.org/2000/svg" version="1.1" xmlns:xlink="http://www.w3.org/1999/xlink" xmlns:svgjs="http://svgjs.com/svgjs" width="1440" height="560" preserveAspectRatio="none" viewBox="0 0 1440 560"><g mask="url(&quot;#SvgjsMask1389&quot;)" fill="none"><rect width="1440" height="560" x="0" y="0" fill="url(#SvgjsLinearGradient1390)"></rect><path d="M 0,36 C 57.6,71 172.8,196.2 288,211 C 403.2,225.8 460.8,105.4 576,110 C 691.2,114.6 748.8,248 864,234 C 979.2,220 1036.8,52 1152,40 C 1267.2,28 1382.4,147.2 1440,174L1440 560L0 560z" fill="rgba(12, 229, 236, 1)"></path><path d="M 0,280 C 96,324.4 288,479.8 480,502 C 672,524.2 768,386.8 960,391 C 1152,395.2 1344,496.6 1440,523L1440 560L0 560z" fill="#2264ab"></path></g><defs><mask id="SvgjsMask1389"><rect width="1440" height="560" fill="#ffffff"></rect></mask><linearGradient x1="84.72%" y1="139.29%" x2="15.28%" y2="-39.29%" gradientUnits="userSpaceOnUse" id="SvgjsLinearGradient1390"><stop stop-color="#0e2a47" offset="0"></stop><stop stop-color="rgba(88, 255, 219, 1)" offset="0.23"></stop><stop stop-color="rgba(88, 255, 219, 1)" offset="0.51"></stop><stop stop-color="rgba(88, 255, 219, 1)" offset="0.85"></stop><stop stop-color="rgba(88, 255, 219, 1)" offset="1"></stop></linearGradient></defs></svg>